%TF.GenerationSoftware,KiCad,Pcbnew,8.0.5*%
%TF.CreationDate,2025-12-10T03:24:57+01:00*%
%TF.ProjectId,Final external pcb,46696e61-6c20-4657-9874-65726e616c20,rev?*%
%TF.SameCoordinates,Original*%
%TF.FileFunction,Drillmap*%
%TF.FilePolarity,Positive*%
%FSLAX45Y45*%
G04 Gerber Fmt 4.5, Leading zero omitted, Abs format (unit mm)*
G04 Created by KiCad (PCBNEW 8.0.5) date 2025-12-10 03:24:57*
%MOMM*%
%LPD*%
G01*
G04 APERTURE LIST*
%ADD10C,0.050000*%
%ADD11C,0.200000*%
%ADD12C,0.100000*%
G04 APERTURE END LIST*
D10*
X8100000Y-10800000D02*
X14500000Y-10800000D01*
X8100000Y-6300000D02*
X8100000Y-10800000D01*
X14500000Y-10800000D02*
X14500000Y-6300000D01*
X14500000Y-6300000D02*
X12150000Y-6300000D01*
X12150000Y-6300000D02*
X8100000Y-6300000D01*
D11*
D12*
X11060000Y-8810000D02*
X11140000Y-8890000D01*
X11140000Y-8810000D02*
X11060000Y-8890000D01*
X12203321Y-8844080D02*
X12283321Y-8924080D01*
X12283321Y-8844080D02*
X12203321Y-8924080D01*
X12760000Y-8810000D02*
X12840000Y-8890000D01*
X12840000Y-8810000D02*
X12760000Y-8890000D01*
X9590000Y-9069000D02*
G75*
G02*
X9510000Y-9069000I-40000J0D01*
G01*
X9510000Y-9069000D02*
G75*
G02*
X9590000Y-9069000I40000J0D01*
G01*
X9590000Y-9831000D02*
G75*
G02*
X9510000Y-9831000I-40000J0D01*
G01*
X9510000Y-9831000D02*
G75*
G02*
X9590000Y-9831000I40000J0D01*
G01*
X10740000Y-9069000D02*
G75*
G02*
X10660000Y-9069000I-40000J0D01*
G01*
X10660000Y-9069000D02*
G75*
G02*
X10740000Y-9069000I40000J0D01*
G01*
X10740000Y-9831000D02*
G75*
G02*
X10660000Y-9831000I-40000J0D01*
G01*
X10660000Y-9831000D02*
G75*
G02*
X10740000Y-9831000I40000J0D01*
G01*
X11615000Y-9071500D02*
G75*
G02*
X11535000Y-9071500I-40000J0D01*
G01*
X11535000Y-9071500D02*
G75*
G02*
X11615000Y-9071500I40000J0D01*
G01*
X11615000Y-9833500D02*
G75*
G02*
X11535000Y-9833500I-40000J0D01*
G01*
X11535000Y-9833500D02*
G75*
G02*
X11615000Y-9833500I40000J0D01*
G01*
X12090000Y-9069000D02*
G75*
G02*
X12010000Y-9069000I-40000J0D01*
G01*
X12010000Y-9069000D02*
G75*
G02*
X12090000Y-9069000I40000J0D01*
G01*
X12090000Y-9831000D02*
G75*
G02*
X12010000Y-9831000I-40000J0D01*
G01*
X12010000Y-9831000D02*
G75*
G02*
X12090000Y-9831000I40000J0D01*
G01*
X9438000Y-6775400D02*
X9438000Y-6864300D01*
X9393550Y-6819850D02*
X9482450Y-6819850D01*
X9438000Y-7029400D02*
X9438000Y-7118300D01*
X9393550Y-7073850D02*
X9482450Y-7073850D01*
X9438000Y-7283400D02*
X9438000Y-7372300D01*
X9393550Y-7327850D02*
X9482450Y-7327850D01*
X9438000Y-7537400D02*
X9438000Y-7626300D01*
X9393550Y-7581850D02*
X9482450Y-7581850D01*
X9438000Y-7791400D02*
X9438000Y-7880300D01*
X9393550Y-7835850D02*
X9482450Y-7835850D01*
X9438000Y-8045400D02*
X9438000Y-8134300D01*
X9393550Y-8089850D02*
X9482450Y-8089850D01*
X9438000Y-8299400D02*
X9438000Y-8388300D01*
X9393550Y-8343850D02*
X9482450Y-8343850D01*
X10962000Y-6775400D02*
X10962000Y-6864300D01*
X10917550Y-6819850D02*
X11006450Y-6819850D01*
X10962000Y-7029400D02*
X10962000Y-7118300D01*
X10917550Y-7073850D02*
X11006450Y-7073850D01*
X10962000Y-7283400D02*
X10962000Y-7372300D01*
X10917550Y-7327850D02*
X11006450Y-7327850D01*
X10962000Y-7537400D02*
X10962000Y-7626300D01*
X10917550Y-7581850D02*
X11006450Y-7581850D01*
X10962000Y-7791400D02*
X10962000Y-7880300D01*
X10917550Y-7835850D02*
X11006450Y-7835850D01*
X10962000Y-8045400D02*
X10962000Y-8134300D01*
X10917550Y-8089850D02*
X11006450Y-8089850D01*
X10962000Y-8299400D02*
X10962000Y-8388300D01*
X10917550Y-8343850D02*
X11006450Y-8343850D01*
X12325500Y-6793550D02*
X12325500Y-6882450D01*
X12281050Y-6838000D02*
X12369950Y-6838000D01*
X12325500Y-7047550D02*
X12325500Y-7136450D01*
X12281050Y-7092000D02*
X12369950Y-7092000D01*
X12325500Y-7301550D02*
X12325500Y-7390450D01*
X12281050Y-7346000D02*
X12369950Y-7346000D01*
X12325500Y-7555550D02*
X12325500Y-7644450D01*
X12281050Y-7600000D02*
X12369950Y-7600000D01*
X12325500Y-7809550D02*
X12325500Y-7898450D01*
X12281050Y-7854000D02*
X12369950Y-7854000D01*
X12325500Y-8063550D02*
X12325500Y-8152450D01*
X12281050Y-8108000D02*
X12369950Y-8108000D01*
X12325500Y-8317550D02*
X12325500Y-8406450D01*
X12281050Y-8362000D02*
X12369950Y-8362000D01*
X13849500Y-6793550D02*
X13849500Y-6882450D01*
X13805050Y-6838000D02*
X13893950Y-6838000D01*
X13849500Y-7047550D02*
X13849500Y-7136450D01*
X13805050Y-7092000D02*
X13893950Y-7092000D01*
X13849500Y-7301550D02*
X13849500Y-7390450D01*
X13805050Y-7346000D02*
X13893950Y-7346000D01*
X13849500Y-7555550D02*
X13849500Y-7644450D01*
X13805050Y-7600000D02*
X13893950Y-7600000D01*
X13849500Y-7809550D02*
X13849500Y-7898450D01*
X13805050Y-7854000D02*
X13893950Y-7854000D01*
X13849500Y-8063550D02*
X13849500Y-8152450D01*
X13805050Y-8108000D02*
X13893950Y-8108000D01*
X13849500Y-8317550D02*
X13849500Y-8406450D01*
X13805050Y-8362000D02*
X13893950Y-8362000D01*
X8627588Y-6939588D02*
X8627588Y-6872412D01*
X8560412Y-6872412D01*
X8560412Y-6939588D01*
X8627588Y-6939588D01*
X8627588Y-7189588D02*
X8627588Y-7122412D01*
X8560412Y-7122412D01*
X8560412Y-7189588D01*
X8627588Y-7189588D01*
X8627588Y-7439588D02*
X8627588Y-7372412D01*
X8560412Y-7372412D01*
X8560412Y-7439588D01*
X8627588Y-7439588D01*
X8633588Y-8223588D02*
X8633588Y-8156412D01*
X8566412Y-8156412D01*
X8566412Y-8223588D01*
X8633588Y-8223588D01*
X8633588Y-8473588D02*
X8633588Y-8406412D01*
X8566412Y-8406412D01*
X8566412Y-8473588D01*
X8633588Y-8473588D01*
X8633588Y-8723588D02*
X8633588Y-8656412D01*
X8566412Y-8656412D01*
X8566412Y-8723588D01*
X8633588Y-8723588D01*
X8683588Y-9633588D02*
X8683588Y-9566412D01*
X8616412Y-9566412D01*
X8616412Y-9633588D01*
X8683588Y-9633588D01*
X8683588Y-9883588D02*
X8683588Y-9816412D01*
X8616412Y-9816412D01*
X8616412Y-9883588D01*
X8683588Y-9883588D01*
X8683588Y-10133588D02*
X8683588Y-10066412D01*
X8616412Y-10066412D01*
X8616412Y-10133588D01*
X8683588Y-10133588D01*
X8683588Y-10383588D02*
X8683588Y-10316412D01*
X8616412Y-10316412D01*
X8616412Y-10383588D01*
X8683588Y-10383588D01*
X11781088Y-6708588D02*
X11781088Y-6641412D01*
X11713912Y-6641412D01*
X11713912Y-6708588D01*
X11781088Y-6708588D01*
X11781088Y-6958588D02*
X11781088Y-6891412D01*
X11713912Y-6891412D01*
X11713912Y-6958588D01*
X11781088Y-6958588D01*
X11781088Y-7208588D02*
X11781088Y-7141412D01*
X11713912Y-7141412D01*
X11713912Y-7208588D01*
X11781088Y-7208588D01*
X11781088Y-7458588D02*
X11781088Y-7391412D01*
X11713912Y-7391412D01*
X11713912Y-7458588D01*
X11781088Y-7458588D01*
X11781088Y-7708588D02*
X11781088Y-7641412D01*
X11713912Y-7641412D01*
X11713912Y-7708588D01*
X11781088Y-7708588D01*
X11781088Y-7958588D02*
X11781088Y-7891412D01*
X11713912Y-7891412D01*
X11713912Y-7958588D01*
X11781088Y-7958588D01*
X11781088Y-8208588D02*
X11781088Y-8141412D01*
X11713912Y-8141412D01*
X11713912Y-8208588D01*
X11781088Y-8208588D01*
X11781088Y-8458588D02*
X11781088Y-8391412D01*
X11713912Y-8391412D01*
X11713912Y-8458588D01*
X11781088Y-8458588D01*
X13133588Y-10283588D02*
X13133588Y-10216412D01*
X13066412Y-10216412D01*
X13066412Y-10283588D01*
X13133588Y-10283588D01*
X13383588Y-10283588D02*
X13383588Y-10216412D01*
X13316412Y-10216412D01*
X13316412Y-10283588D01*
X13383588Y-10283588D01*
X13633588Y-10283588D02*
X13633588Y-10216412D01*
X13566412Y-10216412D01*
X13566412Y-10283588D01*
X13633588Y-10283588D01*
X9550000Y-10300000D02*
X9600000Y-10250000D01*
X9550000Y-10200000D01*
X9500000Y-10250000D01*
X9550000Y-10300000D01*
X9800000Y-10300000D02*
X9850000Y-10250000D01*
X9800000Y-10200000D01*
X9750000Y-10250000D01*
X9800000Y-10300000D01*
X10425000Y-10297500D02*
X10475000Y-10247500D01*
X10425000Y-10197500D01*
X10375000Y-10247500D01*
X10425000Y-10297500D01*
X10675000Y-10297500D02*
X10725000Y-10247500D01*
X10675000Y-10197500D01*
X10625000Y-10247500D01*
X10675000Y-10297500D01*
X11300000Y-10300000D02*
X11350000Y-10250000D01*
X11300000Y-10200000D01*
X11250000Y-10250000D01*
X11300000Y-10300000D01*
X11550000Y-10300000D02*
X11600000Y-10250000D01*
X11550000Y-10200000D01*
X11500000Y-10250000D01*
X11550000Y-10300000D01*
X12200000Y-10300000D02*
X12250000Y-10250000D01*
X12200000Y-10200000D01*
X12150000Y-10250000D01*
X12200000Y-10300000D01*
X12450000Y-10300000D02*
X12500000Y-10250000D01*
X12450000Y-10200000D01*
X12400000Y-10250000D01*
X12450000Y-10300000D01*
X13113232Y-9350000D02*
X13163232Y-9300000D01*
X13113232Y-9250000D01*
X13063232Y-9300000D01*
X13113232Y-9350000D01*
X13613232Y-9350000D02*
X13663232Y-9300000D01*
X13613232Y-9250000D01*
X13563232Y-9300000D01*
X13613232Y-9350000D01*
D11*
X8358277Y-11113984D02*
X8358277Y-10913984D01*
X8358277Y-10913984D02*
X8405896Y-10913984D01*
X8405896Y-10913984D02*
X8434467Y-10923508D01*
X8434467Y-10923508D02*
X8453515Y-10942555D01*
X8453515Y-10942555D02*
X8463039Y-10961603D01*
X8463039Y-10961603D02*
X8472563Y-10999698D01*
X8472563Y-10999698D02*
X8472563Y-11028270D01*
X8472563Y-11028270D02*
X8463039Y-11066365D01*
X8463039Y-11066365D02*
X8453515Y-11085412D01*
X8453515Y-11085412D02*
X8434467Y-11104460D01*
X8434467Y-11104460D02*
X8405896Y-11113984D01*
X8405896Y-11113984D02*
X8358277Y-11113984D01*
X8558277Y-11113984D02*
X8558277Y-10980650D01*
X8558277Y-11018746D02*
X8567801Y-10999698D01*
X8567801Y-10999698D02*
X8577324Y-10990174D01*
X8577324Y-10990174D02*
X8596372Y-10980650D01*
X8596372Y-10980650D02*
X8615420Y-10980650D01*
X8682086Y-11113984D02*
X8682086Y-10980650D01*
X8682086Y-10913984D02*
X8672563Y-10923508D01*
X8672563Y-10923508D02*
X8682086Y-10933031D01*
X8682086Y-10933031D02*
X8691610Y-10923508D01*
X8691610Y-10923508D02*
X8682086Y-10913984D01*
X8682086Y-10913984D02*
X8682086Y-10933031D01*
X8805896Y-11113984D02*
X8786848Y-11104460D01*
X8786848Y-11104460D02*
X8777324Y-11085412D01*
X8777324Y-11085412D02*
X8777324Y-10913984D01*
X8910658Y-11113984D02*
X8891610Y-11104460D01*
X8891610Y-11104460D02*
X8882086Y-11085412D01*
X8882086Y-11085412D02*
X8882086Y-10913984D01*
X9139229Y-11113984D02*
X9139229Y-10913984D01*
X9139229Y-10913984D02*
X9205896Y-11056841D01*
X9205896Y-11056841D02*
X9272563Y-10913984D01*
X9272563Y-10913984D02*
X9272563Y-11113984D01*
X9453515Y-11113984D02*
X9453515Y-11009222D01*
X9453515Y-11009222D02*
X9443991Y-10990174D01*
X9443991Y-10990174D02*
X9424944Y-10980650D01*
X9424944Y-10980650D02*
X9386848Y-10980650D01*
X9386848Y-10980650D02*
X9367801Y-10990174D01*
X9453515Y-11104460D02*
X9434467Y-11113984D01*
X9434467Y-11113984D02*
X9386848Y-11113984D01*
X9386848Y-11113984D02*
X9367801Y-11104460D01*
X9367801Y-11104460D02*
X9358277Y-11085412D01*
X9358277Y-11085412D02*
X9358277Y-11066365D01*
X9358277Y-11066365D02*
X9367801Y-11047317D01*
X9367801Y-11047317D02*
X9386848Y-11037793D01*
X9386848Y-11037793D02*
X9434467Y-11037793D01*
X9434467Y-11037793D02*
X9453515Y-11028270D01*
X9548753Y-10980650D02*
X9548753Y-11180650D01*
X9548753Y-10990174D02*
X9567801Y-10980650D01*
X9567801Y-10980650D02*
X9605896Y-10980650D01*
X9605896Y-10980650D02*
X9624944Y-10990174D01*
X9624944Y-10990174D02*
X9634467Y-10999698D01*
X9634467Y-10999698D02*
X9643991Y-11018746D01*
X9643991Y-11018746D02*
X9643991Y-11075889D01*
X9643991Y-11075889D02*
X9634467Y-11094936D01*
X9634467Y-11094936D02*
X9624944Y-11104460D01*
X9624944Y-11104460D02*
X9605896Y-11113984D01*
X9605896Y-11113984D02*
X9567801Y-11113984D01*
X9567801Y-11113984D02*
X9548753Y-11104460D01*
X9729705Y-11094936D02*
X9739229Y-11104460D01*
X9739229Y-11104460D02*
X9729705Y-11113984D01*
X9729705Y-11113984D02*
X9720182Y-11104460D01*
X9720182Y-11104460D02*
X9729705Y-11094936D01*
X9729705Y-11094936D02*
X9729705Y-11113984D01*
X9729705Y-10990174D02*
X9739229Y-10999698D01*
X9739229Y-10999698D02*
X9729705Y-11009222D01*
X9729705Y-11009222D02*
X9720182Y-10999698D01*
X9720182Y-10999698D02*
X9729705Y-10990174D01*
X9729705Y-10990174D02*
X9729705Y-11009222D01*
D12*
X8017500Y-11402500D02*
X8097500Y-11482500D01*
X8097500Y-11402500D02*
X8017500Y-11482500D01*
D11*
X8396372Y-11333984D02*
X8415420Y-11333984D01*
X8415420Y-11333984D02*
X8434467Y-11343508D01*
X8434467Y-11343508D02*
X8443991Y-11353031D01*
X8443991Y-11353031D02*
X8453515Y-11372079D01*
X8453515Y-11372079D02*
X8463039Y-11410174D01*
X8463039Y-11410174D02*
X8463039Y-11457793D01*
X8463039Y-11457793D02*
X8453515Y-11495888D01*
X8453515Y-11495888D02*
X8443991Y-11514936D01*
X8443991Y-11514936D02*
X8434467Y-11524460D01*
X8434467Y-11524460D02*
X8415420Y-11533984D01*
X8415420Y-11533984D02*
X8396372Y-11533984D01*
X8396372Y-11533984D02*
X8377324Y-11524460D01*
X8377324Y-11524460D02*
X8367801Y-11514936D01*
X8367801Y-11514936D02*
X8358277Y-11495888D01*
X8358277Y-11495888D02*
X8348753Y-11457793D01*
X8348753Y-11457793D02*
X8348753Y-11410174D01*
X8348753Y-11410174D02*
X8358277Y-11372079D01*
X8358277Y-11372079D02*
X8367801Y-11353031D01*
X8367801Y-11353031D02*
X8377324Y-11343508D01*
X8377324Y-11343508D02*
X8396372Y-11333984D01*
X8548753Y-11514936D02*
X8558277Y-11524460D01*
X8558277Y-11524460D02*
X8548753Y-11533984D01*
X8548753Y-11533984D02*
X8539229Y-11524460D01*
X8539229Y-11524460D02*
X8548753Y-11514936D01*
X8548753Y-11514936D02*
X8548753Y-11533984D01*
X8672563Y-11419698D02*
X8653515Y-11410174D01*
X8653515Y-11410174D02*
X8643991Y-11400650D01*
X8643991Y-11400650D02*
X8634467Y-11381603D01*
X8634467Y-11381603D02*
X8634467Y-11372079D01*
X8634467Y-11372079D02*
X8643991Y-11353031D01*
X8643991Y-11353031D02*
X8653515Y-11343508D01*
X8653515Y-11343508D02*
X8672563Y-11333984D01*
X8672563Y-11333984D02*
X8710658Y-11333984D01*
X8710658Y-11333984D02*
X8729705Y-11343508D01*
X8729705Y-11343508D02*
X8739229Y-11353031D01*
X8739229Y-11353031D02*
X8748753Y-11372079D01*
X8748753Y-11372079D02*
X8748753Y-11381603D01*
X8748753Y-11381603D02*
X8739229Y-11400650D01*
X8739229Y-11400650D02*
X8729705Y-11410174D01*
X8729705Y-11410174D02*
X8710658Y-11419698D01*
X8710658Y-11419698D02*
X8672563Y-11419698D01*
X8672563Y-11419698D02*
X8653515Y-11429222D01*
X8653515Y-11429222D02*
X8643991Y-11438746D01*
X8643991Y-11438746D02*
X8634467Y-11457793D01*
X8634467Y-11457793D02*
X8634467Y-11495888D01*
X8634467Y-11495888D02*
X8643991Y-11514936D01*
X8643991Y-11514936D02*
X8653515Y-11524460D01*
X8653515Y-11524460D02*
X8672563Y-11533984D01*
X8672563Y-11533984D02*
X8710658Y-11533984D01*
X8710658Y-11533984D02*
X8729705Y-11524460D01*
X8729705Y-11524460D02*
X8739229Y-11514936D01*
X8739229Y-11514936D02*
X8748753Y-11495888D01*
X8748753Y-11495888D02*
X8748753Y-11457793D01*
X8748753Y-11457793D02*
X8739229Y-11438746D01*
X8739229Y-11438746D02*
X8729705Y-11429222D01*
X8729705Y-11429222D02*
X8710658Y-11419698D01*
X8872563Y-11333984D02*
X8891610Y-11333984D01*
X8891610Y-11333984D02*
X8910658Y-11343508D01*
X8910658Y-11343508D02*
X8920182Y-11353031D01*
X8920182Y-11353031D02*
X8929705Y-11372079D01*
X8929705Y-11372079D02*
X8939229Y-11410174D01*
X8939229Y-11410174D02*
X8939229Y-11457793D01*
X8939229Y-11457793D02*
X8929705Y-11495888D01*
X8929705Y-11495888D02*
X8920182Y-11514936D01*
X8920182Y-11514936D02*
X8910658Y-11524460D01*
X8910658Y-11524460D02*
X8891610Y-11533984D01*
X8891610Y-11533984D02*
X8872563Y-11533984D01*
X8872563Y-11533984D02*
X8853515Y-11524460D01*
X8853515Y-11524460D02*
X8843991Y-11514936D01*
X8843991Y-11514936D02*
X8834467Y-11495888D01*
X8834467Y-11495888D02*
X8824944Y-11457793D01*
X8824944Y-11457793D02*
X8824944Y-11410174D01*
X8824944Y-11410174D02*
X8834467Y-11372079D01*
X8834467Y-11372079D02*
X8843991Y-11353031D01*
X8843991Y-11353031D02*
X8853515Y-11343508D01*
X8853515Y-11343508D02*
X8872563Y-11333984D01*
X9063039Y-11333984D02*
X9082086Y-11333984D01*
X9082086Y-11333984D02*
X9101134Y-11343508D01*
X9101134Y-11343508D02*
X9110658Y-11353031D01*
X9110658Y-11353031D02*
X9120182Y-11372079D01*
X9120182Y-11372079D02*
X9129705Y-11410174D01*
X9129705Y-11410174D02*
X9129705Y-11457793D01*
X9129705Y-11457793D02*
X9120182Y-11495888D01*
X9120182Y-11495888D02*
X9110658Y-11514936D01*
X9110658Y-11514936D02*
X9101134Y-11524460D01*
X9101134Y-11524460D02*
X9082086Y-11533984D01*
X9082086Y-11533984D02*
X9063039Y-11533984D01*
X9063039Y-11533984D02*
X9043991Y-11524460D01*
X9043991Y-11524460D02*
X9034467Y-11514936D01*
X9034467Y-11514936D02*
X9024944Y-11495888D01*
X9024944Y-11495888D02*
X9015420Y-11457793D01*
X9015420Y-11457793D02*
X9015420Y-11410174D01*
X9015420Y-11410174D02*
X9024944Y-11372079D01*
X9024944Y-11372079D02*
X9034467Y-11353031D01*
X9034467Y-11353031D02*
X9043991Y-11343508D01*
X9043991Y-11343508D02*
X9063039Y-11333984D01*
X9215420Y-11533984D02*
X9215420Y-11400650D01*
X9215420Y-11419698D02*
X9224944Y-11410174D01*
X9224944Y-11410174D02*
X9243991Y-11400650D01*
X9243991Y-11400650D02*
X9272563Y-11400650D01*
X9272563Y-11400650D02*
X9291610Y-11410174D01*
X9291610Y-11410174D02*
X9301134Y-11429222D01*
X9301134Y-11429222D02*
X9301134Y-11533984D01*
X9301134Y-11429222D02*
X9310658Y-11410174D01*
X9310658Y-11410174D02*
X9329705Y-11400650D01*
X9329705Y-11400650D02*
X9358277Y-11400650D01*
X9358277Y-11400650D02*
X9377325Y-11410174D01*
X9377325Y-11410174D02*
X9386848Y-11429222D01*
X9386848Y-11429222D02*
X9386848Y-11533984D01*
X9482086Y-11533984D02*
X9482086Y-11400650D01*
X9482086Y-11419698D02*
X9491610Y-11410174D01*
X9491610Y-11410174D02*
X9510658Y-11400650D01*
X9510658Y-11400650D02*
X9539229Y-11400650D01*
X9539229Y-11400650D02*
X9558277Y-11410174D01*
X9558277Y-11410174D02*
X9567801Y-11429222D01*
X9567801Y-11429222D02*
X9567801Y-11533984D01*
X9567801Y-11429222D02*
X9577325Y-11410174D01*
X9577325Y-11410174D02*
X9596372Y-11400650D01*
X9596372Y-11400650D02*
X9624944Y-11400650D01*
X9624944Y-11400650D02*
X9643991Y-11410174D01*
X9643991Y-11410174D02*
X9653515Y-11429222D01*
X9653515Y-11429222D02*
X9653515Y-11533984D01*
X10043991Y-11324460D02*
X9872563Y-11581603D01*
X10301134Y-11333984D02*
X10320182Y-11333984D01*
X10320182Y-11333984D02*
X10339229Y-11343508D01*
X10339229Y-11343508D02*
X10348753Y-11353031D01*
X10348753Y-11353031D02*
X10358277Y-11372079D01*
X10358277Y-11372079D02*
X10367801Y-11410174D01*
X10367801Y-11410174D02*
X10367801Y-11457793D01*
X10367801Y-11457793D02*
X10358277Y-11495888D01*
X10358277Y-11495888D02*
X10348753Y-11514936D01*
X10348753Y-11514936D02*
X10339229Y-11524460D01*
X10339229Y-11524460D02*
X10320182Y-11533984D01*
X10320182Y-11533984D02*
X10301134Y-11533984D01*
X10301134Y-11533984D02*
X10282087Y-11524460D01*
X10282087Y-11524460D02*
X10272563Y-11514936D01*
X10272563Y-11514936D02*
X10263039Y-11495888D01*
X10263039Y-11495888D02*
X10253515Y-11457793D01*
X10253515Y-11457793D02*
X10253515Y-11410174D01*
X10253515Y-11410174D02*
X10263039Y-11372079D01*
X10263039Y-11372079D02*
X10272563Y-11353031D01*
X10272563Y-11353031D02*
X10282087Y-11343508D01*
X10282087Y-11343508D02*
X10301134Y-11333984D01*
X10453515Y-11514936D02*
X10463039Y-11524460D01*
X10463039Y-11524460D02*
X10453515Y-11533984D01*
X10453515Y-11533984D02*
X10443991Y-11524460D01*
X10443991Y-11524460D02*
X10453515Y-11514936D01*
X10453515Y-11514936D02*
X10453515Y-11533984D01*
X10586848Y-11333984D02*
X10605896Y-11333984D01*
X10605896Y-11333984D02*
X10624944Y-11343508D01*
X10624944Y-11343508D02*
X10634468Y-11353031D01*
X10634468Y-11353031D02*
X10643991Y-11372079D01*
X10643991Y-11372079D02*
X10653515Y-11410174D01*
X10653515Y-11410174D02*
X10653515Y-11457793D01*
X10653515Y-11457793D02*
X10643991Y-11495888D01*
X10643991Y-11495888D02*
X10634468Y-11514936D01*
X10634468Y-11514936D02*
X10624944Y-11524460D01*
X10624944Y-11524460D02*
X10605896Y-11533984D01*
X10605896Y-11533984D02*
X10586848Y-11533984D01*
X10586848Y-11533984D02*
X10567801Y-11524460D01*
X10567801Y-11524460D02*
X10558277Y-11514936D01*
X10558277Y-11514936D02*
X10548753Y-11495888D01*
X10548753Y-11495888D02*
X10539229Y-11457793D01*
X10539229Y-11457793D02*
X10539229Y-11410174D01*
X10539229Y-11410174D02*
X10548753Y-11372079D01*
X10548753Y-11372079D02*
X10558277Y-11353031D01*
X10558277Y-11353031D02*
X10567801Y-11343508D01*
X10567801Y-11343508D02*
X10586848Y-11333984D01*
X10720182Y-11333984D02*
X10843991Y-11333984D01*
X10843991Y-11333984D02*
X10777325Y-11410174D01*
X10777325Y-11410174D02*
X10805896Y-11410174D01*
X10805896Y-11410174D02*
X10824944Y-11419698D01*
X10824944Y-11419698D02*
X10834468Y-11429222D01*
X10834468Y-11429222D02*
X10843991Y-11448269D01*
X10843991Y-11448269D02*
X10843991Y-11495888D01*
X10843991Y-11495888D02*
X10834468Y-11514936D01*
X10834468Y-11514936D02*
X10824944Y-11524460D01*
X10824944Y-11524460D02*
X10805896Y-11533984D01*
X10805896Y-11533984D02*
X10748753Y-11533984D01*
X10748753Y-11533984D02*
X10729706Y-11524460D01*
X10729706Y-11524460D02*
X10720182Y-11514936D01*
X11034468Y-11533984D02*
X10920182Y-11533984D01*
X10977325Y-11533984D02*
X10977325Y-11333984D01*
X10977325Y-11333984D02*
X10958277Y-11362555D01*
X10958277Y-11362555D02*
X10939229Y-11381603D01*
X10939229Y-11381603D02*
X10920182Y-11391127D01*
X11215420Y-11333984D02*
X11120182Y-11333984D01*
X11120182Y-11333984D02*
X11110658Y-11429222D01*
X11110658Y-11429222D02*
X11120182Y-11419698D01*
X11120182Y-11419698D02*
X11139229Y-11410174D01*
X11139229Y-11410174D02*
X11186848Y-11410174D01*
X11186848Y-11410174D02*
X11205896Y-11419698D01*
X11205896Y-11419698D02*
X11215420Y-11429222D01*
X11215420Y-11429222D02*
X11224944Y-11448269D01*
X11224944Y-11448269D02*
X11224944Y-11495888D01*
X11224944Y-11495888D02*
X11215420Y-11514936D01*
X11215420Y-11514936D02*
X11205896Y-11524460D01*
X11205896Y-11524460D02*
X11186848Y-11533984D01*
X11186848Y-11533984D02*
X11139229Y-11533984D01*
X11139229Y-11533984D02*
X11120182Y-11524460D01*
X11120182Y-11524460D02*
X11110658Y-11514936D01*
X11301134Y-11333984D02*
X11301134Y-11372079D01*
X11377325Y-11333984D02*
X11377325Y-11372079D01*
X11672563Y-11610174D02*
X11663039Y-11600650D01*
X11663039Y-11600650D02*
X11643991Y-11572079D01*
X11643991Y-11572079D02*
X11634468Y-11553031D01*
X11634468Y-11553031D02*
X11624944Y-11524460D01*
X11624944Y-11524460D02*
X11615420Y-11476841D01*
X11615420Y-11476841D02*
X11615420Y-11438746D01*
X11615420Y-11438746D02*
X11624944Y-11391127D01*
X11624944Y-11391127D02*
X11634468Y-11362555D01*
X11634468Y-11362555D02*
X11643991Y-11343508D01*
X11643991Y-11343508D02*
X11663039Y-11314936D01*
X11663039Y-11314936D02*
X11672563Y-11305412D01*
X11729706Y-11333984D02*
X11853515Y-11333984D01*
X11853515Y-11333984D02*
X11786848Y-11410174D01*
X11786848Y-11410174D02*
X11815420Y-11410174D01*
X11815420Y-11410174D02*
X11834468Y-11419698D01*
X11834468Y-11419698D02*
X11843991Y-11429222D01*
X11843991Y-11429222D02*
X11853515Y-11448269D01*
X11853515Y-11448269D02*
X11853515Y-11495888D01*
X11853515Y-11495888D02*
X11843991Y-11514936D01*
X11843991Y-11514936D02*
X11834468Y-11524460D01*
X11834468Y-11524460D02*
X11815420Y-11533984D01*
X11815420Y-11533984D02*
X11758277Y-11533984D01*
X11758277Y-11533984D02*
X11739229Y-11524460D01*
X11739229Y-11524460D02*
X11729706Y-11514936D01*
X12091610Y-11533984D02*
X12091610Y-11333984D01*
X12177325Y-11533984D02*
X12177325Y-11429222D01*
X12177325Y-11429222D02*
X12167801Y-11410174D01*
X12167801Y-11410174D02*
X12148753Y-11400650D01*
X12148753Y-11400650D02*
X12120182Y-11400650D01*
X12120182Y-11400650D02*
X12101134Y-11410174D01*
X12101134Y-11410174D02*
X12091610Y-11419698D01*
X12301134Y-11533984D02*
X12282087Y-11524460D01*
X12282087Y-11524460D02*
X12272563Y-11514936D01*
X12272563Y-11514936D02*
X12263039Y-11495888D01*
X12263039Y-11495888D02*
X12263039Y-11438746D01*
X12263039Y-11438746D02*
X12272563Y-11419698D01*
X12272563Y-11419698D02*
X12282087Y-11410174D01*
X12282087Y-11410174D02*
X12301134Y-11400650D01*
X12301134Y-11400650D02*
X12329706Y-11400650D01*
X12329706Y-11400650D02*
X12348753Y-11410174D01*
X12348753Y-11410174D02*
X12358277Y-11419698D01*
X12358277Y-11419698D02*
X12367801Y-11438746D01*
X12367801Y-11438746D02*
X12367801Y-11495888D01*
X12367801Y-11495888D02*
X12358277Y-11514936D01*
X12358277Y-11514936D02*
X12348753Y-11524460D01*
X12348753Y-11524460D02*
X12329706Y-11533984D01*
X12329706Y-11533984D02*
X12301134Y-11533984D01*
X12482087Y-11533984D02*
X12463039Y-11524460D01*
X12463039Y-11524460D02*
X12453515Y-11505412D01*
X12453515Y-11505412D02*
X12453515Y-11333984D01*
X12634468Y-11524460D02*
X12615420Y-11533984D01*
X12615420Y-11533984D02*
X12577325Y-11533984D01*
X12577325Y-11533984D02*
X12558277Y-11524460D01*
X12558277Y-11524460D02*
X12548753Y-11505412D01*
X12548753Y-11505412D02*
X12548753Y-11429222D01*
X12548753Y-11429222D02*
X12558277Y-11410174D01*
X12558277Y-11410174D02*
X12577325Y-11400650D01*
X12577325Y-11400650D02*
X12615420Y-11400650D01*
X12615420Y-11400650D02*
X12634468Y-11410174D01*
X12634468Y-11410174D02*
X12643991Y-11429222D01*
X12643991Y-11429222D02*
X12643991Y-11448269D01*
X12643991Y-11448269D02*
X12548753Y-11467317D01*
X12720182Y-11524460D02*
X12739230Y-11533984D01*
X12739230Y-11533984D02*
X12777325Y-11533984D01*
X12777325Y-11533984D02*
X12796372Y-11524460D01*
X12796372Y-11524460D02*
X12805896Y-11505412D01*
X12805896Y-11505412D02*
X12805896Y-11495888D01*
X12805896Y-11495888D02*
X12796372Y-11476841D01*
X12796372Y-11476841D02*
X12777325Y-11467317D01*
X12777325Y-11467317D02*
X12748753Y-11467317D01*
X12748753Y-11467317D02*
X12729706Y-11457793D01*
X12729706Y-11457793D02*
X12720182Y-11438746D01*
X12720182Y-11438746D02*
X12720182Y-11429222D01*
X12720182Y-11429222D02*
X12729706Y-11410174D01*
X12729706Y-11410174D02*
X12748753Y-11400650D01*
X12748753Y-11400650D02*
X12777325Y-11400650D01*
X12777325Y-11400650D02*
X12796372Y-11410174D01*
X12872563Y-11610174D02*
X12882087Y-11600650D01*
X12882087Y-11600650D02*
X12901134Y-11572079D01*
X12901134Y-11572079D02*
X12910658Y-11553031D01*
X12910658Y-11553031D02*
X12920182Y-11524460D01*
X12920182Y-11524460D02*
X12929706Y-11476841D01*
X12929706Y-11476841D02*
X12929706Y-11438746D01*
X12929706Y-11438746D02*
X12920182Y-11391127D01*
X12920182Y-11391127D02*
X12910658Y-11362555D01*
X12910658Y-11362555D02*
X12901134Y-11343508D01*
X12901134Y-11343508D02*
X12882087Y-11314936D01*
X12882087Y-11314936D02*
X12872563Y-11305412D01*
D12*
X8097500Y-11706500D02*
G75*
G02*
X8017500Y-11706500I-40000J0D01*
G01*
X8017500Y-11706500D02*
G75*
G02*
X8097500Y-11706500I40000J0D01*
G01*
D11*
X8396372Y-11597984D02*
X8415420Y-11597984D01*
X8415420Y-11597984D02*
X8434467Y-11607508D01*
X8434467Y-11607508D02*
X8443991Y-11617031D01*
X8443991Y-11617031D02*
X8453515Y-11636079D01*
X8453515Y-11636079D02*
X8463039Y-11674174D01*
X8463039Y-11674174D02*
X8463039Y-11721793D01*
X8463039Y-11721793D02*
X8453515Y-11759888D01*
X8453515Y-11759888D02*
X8443991Y-11778936D01*
X8443991Y-11778936D02*
X8434467Y-11788460D01*
X8434467Y-11788460D02*
X8415420Y-11797984D01*
X8415420Y-11797984D02*
X8396372Y-11797984D01*
X8396372Y-11797984D02*
X8377324Y-11788460D01*
X8377324Y-11788460D02*
X8367801Y-11778936D01*
X8367801Y-11778936D02*
X8358277Y-11759888D01*
X8358277Y-11759888D02*
X8348753Y-11721793D01*
X8348753Y-11721793D02*
X8348753Y-11674174D01*
X8348753Y-11674174D02*
X8358277Y-11636079D01*
X8358277Y-11636079D02*
X8367801Y-11617031D01*
X8367801Y-11617031D02*
X8377324Y-11607508D01*
X8377324Y-11607508D02*
X8396372Y-11597984D01*
X8548753Y-11778936D02*
X8558277Y-11788460D01*
X8558277Y-11788460D02*
X8548753Y-11797984D01*
X8548753Y-11797984D02*
X8539229Y-11788460D01*
X8539229Y-11788460D02*
X8548753Y-11778936D01*
X8548753Y-11778936D02*
X8548753Y-11797984D01*
X8672563Y-11683698D02*
X8653515Y-11674174D01*
X8653515Y-11674174D02*
X8643991Y-11664650D01*
X8643991Y-11664650D02*
X8634467Y-11645603D01*
X8634467Y-11645603D02*
X8634467Y-11636079D01*
X8634467Y-11636079D02*
X8643991Y-11617031D01*
X8643991Y-11617031D02*
X8653515Y-11607508D01*
X8653515Y-11607508D02*
X8672563Y-11597984D01*
X8672563Y-11597984D02*
X8710658Y-11597984D01*
X8710658Y-11597984D02*
X8729705Y-11607508D01*
X8729705Y-11607508D02*
X8739229Y-11617031D01*
X8739229Y-11617031D02*
X8748753Y-11636079D01*
X8748753Y-11636079D02*
X8748753Y-11645603D01*
X8748753Y-11645603D02*
X8739229Y-11664650D01*
X8739229Y-11664650D02*
X8729705Y-11674174D01*
X8729705Y-11674174D02*
X8710658Y-11683698D01*
X8710658Y-11683698D02*
X8672563Y-11683698D01*
X8672563Y-11683698D02*
X8653515Y-11693222D01*
X8653515Y-11693222D02*
X8643991Y-11702746D01*
X8643991Y-11702746D02*
X8634467Y-11721793D01*
X8634467Y-11721793D02*
X8634467Y-11759888D01*
X8634467Y-11759888D02*
X8643991Y-11778936D01*
X8643991Y-11778936D02*
X8653515Y-11788460D01*
X8653515Y-11788460D02*
X8672563Y-11797984D01*
X8672563Y-11797984D02*
X8710658Y-11797984D01*
X8710658Y-11797984D02*
X8729705Y-11788460D01*
X8729705Y-11788460D02*
X8739229Y-11778936D01*
X8739229Y-11778936D02*
X8748753Y-11759888D01*
X8748753Y-11759888D02*
X8748753Y-11721793D01*
X8748753Y-11721793D02*
X8739229Y-11702746D01*
X8739229Y-11702746D02*
X8729705Y-11693222D01*
X8729705Y-11693222D02*
X8710658Y-11683698D01*
X8872563Y-11597984D02*
X8891610Y-11597984D01*
X8891610Y-11597984D02*
X8910658Y-11607508D01*
X8910658Y-11607508D02*
X8920182Y-11617031D01*
X8920182Y-11617031D02*
X8929705Y-11636079D01*
X8929705Y-11636079D02*
X8939229Y-11674174D01*
X8939229Y-11674174D02*
X8939229Y-11721793D01*
X8939229Y-11721793D02*
X8929705Y-11759888D01*
X8929705Y-11759888D02*
X8920182Y-11778936D01*
X8920182Y-11778936D02*
X8910658Y-11788460D01*
X8910658Y-11788460D02*
X8891610Y-11797984D01*
X8891610Y-11797984D02*
X8872563Y-11797984D01*
X8872563Y-11797984D02*
X8853515Y-11788460D01*
X8853515Y-11788460D02*
X8843991Y-11778936D01*
X8843991Y-11778936D02*
X8834467Y-11759888D01*
X8834467Y-11759888D02*
X8824944Y-11721793D01*
X8824944Y-11721793D02*
X8824944Y-11674174D01*
X8824944Y-11674174D02*
X8834467Y-11636079D01*
X8834467Y-11636079D02*
X8843991Y-11617031D01*
X8843991Y-11617031D02*
X8853515Y-11607508D01*
X8853515Y-11607508D02*
X8872563Y-11597984D01*
X9063039Y-11597984D02*
X9082086Y-11597984D01*
X9082086Y-11597984D02*
X9101134Y-11607508D01*
X9101134Y-11607508D02*
X9110658Y-11617031D01*
X9110658Y-11617031D02*
X9120182Y-11636079D01*
X9120182Y-11636079D02*
X9129705Y-11674174D01*
X9129705Y-11674174D02*
X9129705Y-11721793D01*
X9129705Y-11721793D02*
X9120182Y-11759888D01*
X9120182Y-11759888D02*
X9110658Y-11778936D01*
X9110658Y-11778936D02*
X9101134Y-11788460D01*
X9101134Y-11788460D02*
X9082086Y-11797984D01*
X9082086Y-11797984D02*
X9063039Y-11797984D01*
X9063039Y-11797984D02*
X9043991Y-11788460D01*
X9043991Y-11788460D02*
X9034467Y-11778936D01*
X9034467Y-11778936D02*
X9024944Y-11759888D01*
X9024944Y-11759888D02*
X9015420Y-11721793D01*
X9015420Y-11721793D02*
X9015420Y-11674174D01*
X9015420Y-11674174D02*
X9024944Y-11636079D01*
X9024944Y-11636079D02*
X9034467Y-11617031D01*
X9034467Y-11617031D02*
X9043991Y-11607508D01*
X9043991Y-11607508D02*
X9063039Y-11597984D01*
X9215420Y-11797984D02*
X9215420Y-11664650D01*
X9215420Y-11683698D02*
X9224944Y-11674174D01*
X9224944Y-11674174D02*
X9243991Y-11664650D01*
X9243991Y-11664650D02*
X9272563Y-11664650D01*
X9272563Y-11664650D02*
X9291610Y-11674174D01*
X9291610Y-11674174D02*
X9301134Y-11693222D01*
X9301134Y-11693222D02*
X9301134Y-11797984D01*
X9301134Y-11693222D02*
X9310658Y-11674174D01*
X9310658Y-11674174D02*
X9329705Y-11664650D01*
X9329705Y-11664650D02*
X9358277Y-11664650D01*
X9358277Y-11664650D02*
X9377325Y-11674174D01*
X9377325Y-11674174D02*
X9386848Y-11693222D01*
X9386848Y-11693222D02*
X9386848Y-11797984D01*
X9482086Y-11797984D02*
X9482086Y-11664650D01*
X9482086Y-11683698D02*
X9491610Y-11674174D01*
X9491610Y-11674174D02*
X9510658Y-11664650D01*
X9510658Y-11664650D02*
X9539229Y-11664650D01*
X9539229Y-11664650D02*
X9558277Y-11674174D01*
X9558277Y-11674174D02*
X9567801Y-11693222D01*
X9567801Y-11693222D02*
X9567801Y-11797984D01*
X9567801Y-11693222D02*
X9577325Y-11674174D01*
X9577325Y-11674174D02*
X9596372Y-11664650D01*
X9596372Y-11664650D02*
X9624944Y-11664650D01*
X9624944Y-11664650D02*
X9643991Y-11674174D01*
X9643991Y-11674174D02*
X9653515Y-11693222D01*
X9653515Y-11693222D02*
X9653515Y-11797984D01*
X10043991Y-11588460D02*
X9872563Y-11845603D01*
X10301134Y-11597984D02*
X10320182Y-11597984D01*
X10320182Y-11597984D02*
X10339229Y-11607508D01*
X10339229Y-11607508D02*
X10348753Y-11617031D01*
X10348753Y-11617031D02*
X10358277Y-11636079D01*
X10358277Y-11636079D02*
X10367801Y-11674174D01*
X10367801Y-11674174D02*
X10367801Y-11721793D01*
X10367801Y-11721793D02*
X10358277Y-11759888D01*
X10358277Y-11759888D02*
X10348753Y-11778936D01*
X10348753Y-11778936D02*
X10339229Y-11788460D01*
X10339229Y-11788460D02*
X10320182Y-11797984D01*
X10320182Y-11797984D02*
X10301134Y-11797984D01*
X10301134Y-11797984D02*
X10282087Y-11788460D01*
X10282087Y-11788460D02*
X10272563Y-11778936D01*
X10272563Y-11778936D02*
X10263039Y-11759888D01*
X10263039Y-11759888D02*
X10253515Y-11721793D01*
X10253515Y-11721793D02*
X10253515Y-11674174D01*
X10253515Y-11674174D02*
X10263039Y-11636079D01*
X10263039Y-11636079D02*
X10272563Y-11617031D01*
X10272563Y-11617031D02*
X10282087Y-11607508D01*
X10282087Y-11607508D02*
X10301134Y-11597984D01*
X10453515Y-11778936D02*
X10463039Y-11788460D01*
X10463039Y-11788460D02*
X10453515Y-11797984D01*
X10453515Y-11797984D02*
X10443991Y-11788460D01*
X10443991Y-11788460D02*
X10453515Y-11778936D01*
X10453515Y-11778936D02*
X10453515Y-11797984D01*
X10586848Y-11597984D02*
X10605896Y-11597984D01*
X10605896Y-11597984D02*
X10624944Y-11607508D01*
X10624944Y-11607508D02*
X10634468Y-11617031D01*
X10634468Y-11617031D02*
X10643991Y-11636079D01*
X10643991Y-11636079D02*
X10653515Y-11674174D01*
X10653515Y-11674174D02*
X10653515Y-11721793D01*
X10653515Y-11721793D02*
X10643991Y-11759888D01*
X10643991Y-11759888D02*
X10634468Y-11778936D01*
X10634468Y-11778936D02*
X10624944Y-11788460D01*
X10624944Y-11788460D02*
X10605896Y-11797984D01*
X10605896Y-11797984D02*
X10586848Y-11797984D01*
X10586848Y-11797984D02*
X10567801Y-11788460D01*
X10567801Y-11788460D02*
X10558277Y-11778936D01*
X10558277Y-11778936D02*
X10548753Y-11759888D01*
X10548753Y-11759888D02*
X10539229Y-11721793D01*
X10539229Y-11721793D02*
X10539229Y-11674174D01*
X10539229Y-11674174D02*
X10548753Y-11636079D01*
X10548753Y-11636079D02*
X10558277Y-11617031D01*
X10558277Y-11617031D02*
X10567801Y-11607508D01*
X10567801Y-11607508D02*
X10586848Y-11597984D01*
X10720182Y-11597984D02*
X10843991Y-11597984D01*
X10843991Y-11597984D02*
X10777325Y-11674174D01*
X10777325Y-11674174D02*
X10805896Y-11674174D01*
X10805896Y-11674174D02*
X10824944Y-11683698D01*
X10824944Y-11683698D02*
X10834468Y-11693222D01*
X10834468Y-11693222D02*
X10843991Y-11712269D01*
X10843991Y-11712269D02*
X10843991Y-11759888D01*
X10843991Y-11759888D02*
X10834468Y-11778936D01*
X10834468Y-11778936D02*
X10824944Y-11788460D01*
X10824944Y-11788460D02*
X10805896Y-11797984D01*
X10805896Y-11797984D02*
X10748753Y-11797984D01*
X10748753Y-11797984D02*
X10729706Y-11788460D01*
X10729706Y-11788460D02*
X10720182Y-11778936D01*
X11034468Y-11797984D02*
X10920182Y-11797984D01*
X10977325Y-11797984D02*
X10977325Y-11597984D01*
X10977325Y-11597984D02*
X10958277Y-11626555D01*
X10958277Y-11626555D02*
X10939229Y-11645603D01*
X10939229Y-11645603D02*
X10920182Y-11655127D01*
X11215420Y-11597984D02*
X11120182Y-11597984D01*
X11120182Y-11597984D02*
X11110658Y-11693222D01*
X11110658Y-11693222D02*
X11120182Y-11683698D01*
X11120182Y-11683698D02*
X11139229Y-11674174D01*
X11139229Y-11674174D02*
X11186848Y-11674174D01*
X11186848Y-11674174D02*
X11205896Y-11683698D01*
X11205896Y-11683698D02*
X11215420Y-11693222D01*
X11215420Y-11693222D02*
X11224944Y-11712269D01*
X11224944Y-11712269D02*
X11224944Y-11759888D01*
X11224944Y-11759888D02*
X11215420Y-11778936D01*
X11215420Y-11778936D02*
X11205896Y-11788460D01*
X11205896Y-11788460D02*
X11186848Y-11797984D01*
X11186848Y-11797984D02*
X11139229Y-11797984D01*
X11139229Y-11797984D02*
X11120182Y-11788460D01*
X11120182Y-11788460D02*
X11110658Y-11778936D01*
X11301134Y-11597984D02*
X11301134Y-11636079D01*
X11377325Y-11597984D02*
X11377325Y-11636079D01*
X11672563Y-11874174D02*
X11663039Y-11864650D01*
X11663039Y-11864650D02*
X11643991Y-11836079D01*
X11643991Y-11836079D02*
X11634468Y-11817031D01*
X11634468Y-11817031D02*
X11624944Y-11788460D01*
X11624944Y-11788460D02*
X11615420Y-11740841D01*
X11615420Y-11740841D02*
X11615420Y-11702746D01*
X11615420Y-11702746D02*
X11624944Y-11655127D01*
X11624944Y-11655127D02*
X11634468Y-11626555D01*
X11634468Y-11626555D02*
X11643991Y-11607508D01*
X11643991Y-11607508D02*
X11663039Y-11578936D01*
X11663039Y-11578936D02*
X11672563Y-11569412D01*
X11777325Y-11683698D02*
X11758277Y-11674174D01*
X11758277Y-11674174D02*
X11748753Y-11664650D01*
X11748753Y-11664650D02*
X11739229Y-11645603D01*
X11739229Y-11645603D02*
X11739229Y-11636079D01*
X11739229Y-11636079D02*
X11748753Y-11617031D01*
X11748753Y-11617031D02*
X11758277Y-11607508D01*
X11758277Y-11607508D02*
X11777325Y-11597984D01*
X11777325Y-11597984D02*
X11815420Y-11597984D01*
X11815420Y-11597984D02*
X11834468Y-11607508D01*
X11834468Y-11607508D02*
X11843991Y-11617031D01*
X11843991Y-11617031D02*
X11853515Y-11636079D01*
X11853515Y-11636079D02*
X11853515Y-11645603D01*
X11853515Y-11645603D02*
X11843991Y-11664650D01*
X11843991Y-11664650D02*
X11834468Y-11674174D01*
X11834468Y-11674174D02*
X11815420Y-11683698D01*
X11815420Y-11683698D02*
X11777325Y-11683698D01*
X11777325Y-11683698D02*
X11758277Y-11693222D01*
X11758277Y-11693222D02*
X11748753Y-11702746D01*
X11748753Y-11702746D02*
X11739229Y-11721793D01*
X11739229Y-11721793D02*
X11739229Y-11759888D01*
X11739229Y-11759888D02*
X11748753Y-11778936D01*
X11748753Y-11778936D02*
X11758277Y-11788460D01*
X11758277Y-11788460D02*
X11777325Y-11797984D01*
X11777325Y-11797984D02*
X11815420Y-11797984D01*
X11815420Y-11797984D02*
X11834468Y-11788460D01*
X11834468Y-11788460D02*
X11843991Y-11778936D01*
X11843991Y-11778936D02*
X11853515Y-11759888D01*
X11853515Y-11759888D02*
X11853515Y-11721793D01*
X11853515Y-11721793D02*
X11843991Y-11702746D01*
X11843991Y-11702746D02*
X11834468Y-11693222D01*
X11834468Y-11693222D02*
X11815420Y-11683698D01*
X12091610Y-11797984D02*
X12091610Y-11597984D01*
X12177325Y-11797984D02*
X12177325Y-11693222D01*
X12177325Y-11693222D02*
X12167801Y-11674174D01*
X12167801Y-11674174D02*
X12148753Y-11664650D01*
X12148753Y-11664650D02*
X12120182Y-11664650D01*
X12120182Y-11664650D02*
X12101134Y-11674174D01*
X12101134Y-11674174D02*
X12091610Y-11683698D01*
X12301134Y-11797984D02*
X12282087Y-11788460D01*
X12282087Y-11788460D02*
X12272563Y-11778936D01*
X12272563Y-11778936D02*
X12263039Y-11759888D01*
X12263039Y-11759888D02*
X12263039Y-11702746D01*
X12263039Y-11702746D02*
X12272563Y-11683698D01*
X12272563Y-11683698D02*
X12282087Y-11674174D01*
X12282087Y-11674174D02*
X12301134Y-11664650D01*
X12301134Y-11664650D02*
X12329706Y-11664650D01*
X12329706Y-11664650D02*
X12348753Y-11674174D01*
X12348753Y-11674174D02*
X12358277Y-11683698D01*
X12358277Y-11683698D02*
X12367801Y-11702746D01*
X12367801Y-11702746D02*
X12367801Y-11759888D01*
X12367801Y-11759888D02*
X12358277Y-11778936D01*
X12358277Y-11778936D02*
X12348753Y-11788460D01*
X12348753Y-11788460D02*
X12329706Y-11797984D01*
X12329706Y-11797984D02*
X12301134Y-11797984D01*
X12482087Y-11797984D02*
X12463039Y-11788460D01*
X12463039Y-11788460D02*
X12453515Y-11769412D01*
X12453515Y-11769412D02*
X12453515Y-11597984D01*
X12634468Y-11788460D02*
X12615420Y-11797984D01*
X12615420Y-11797984D02*
X12577325Y-11797984D01*
X12577325Y-11797984D02*
X12558277Y-11788460D01*
X12558277Y-11788460D02*
X12548753Y-11769412D01*
X12548753Y-11769412D02*
X12548753Y-11693222D01*
X12548753Y-11693222D02*
X12558277Y-11674174D01*
X12558277Y-11674174D02*
X12577325Y-11664650D01*
X12577325Y-11664650D02*
X12615420Y-11664650D01*
X12615420Y-11664650D02*
X12634468Y-11674174D01*
X12634468Y-11674174D02*
X12643991Y-11693222D01*
X12643991Y-11693222D02*
X12643991Y-11712269D01*
X12643991Y-11712269D02*
X12548753Y-11731317D01*
X12720182Y-11788460D02*
X12739230Y-11797984D01*
X12739230Y-11797984D02*
X12777325Y-11797984D01*
X12777325Y-11797984D02*
X12796372Y-11788460D01*
X12796372Y-11788460D02*
X12805896Y-11769412D01*
X12805896Y-11769412D02*
X12805896Y-11759888D01*
X12805896Y-11759888D02*
X12796372Y-11740841D01*
X12796372Y-11740841D02*
X12777325Y-11731317D01*
X12777325Y-11731317D02*
X12748753Y-11731317D01*
X12748753Y-11731317D02*
X12729706Y-11721793D01*
X12729706Y-11721793D02*
X12720182Y-11702746D01*
X12720182Y-11702746D02*
X12720182Y-11693222D01*
X12720182Y-11693222D02*
X12729706Y-11674174D01*
X12729706Y-11674174D02*
X12748753Y-11664650D01*
X12748753Y-11664650D02*
X12777325Y-11664650D01*
X12777325Y-11664650D02*
X12796372Y-11674174D01*
X12872563Y-11874174D02*
X12882087Y-11864650D01*
X12882087Y-11864650D02*
X12901134Y-11836079D01*
X12901134Y-11836079D02*
X12910658Y-11817031D01*
X12910658Y-11817031D02*
X12920182Y-11788460D01*
X12920182Y-11788460D02*
X12929706Y-11740841D01*
X12929706Y-11740841D02*
X12929706Y-11702746D01*
X12929706Y-11702746D02*
X12920182Y-11655127D01*
X12920182Y-11655127D02*
X12910658Y-11626555D01*
X12910658Y-11626555D02*
X12901134Y-11607508D01*
X12901134Y-11607508D02*
X12882087Y-11578936D01*
X12882087Y-11578936D02*
X12872563Y-11569412D01*
D12*
X8053050Y-11926050D02*
X8053050Y-12014950D01*
X8008600Y-11970500D02*
X8097500Y-11970500D01*
D11*
X8396372Y-11861984D02*
X8415420Y-11861984D01*
X8415420Y-11861984D02*
X8434467Y-11871508D01*
X8434467Y-11871508D02*
X8443991Y-11881031D01*
X8443991Y-11881031D02*
X8453515Y-11900079D01*
X8453515Y-11900079D02*
X8463039Y-11938174D01*
X8463039Y-11938174D02*
X8463039Y-11985793D01*
X8463039Y-11985793D02*
X8453515Y-12023888D01*
X8453515Y-12023888D02*
X8443991Y-12042936D01*
X8443991Y-12042936D02*
X8434467Y-12052460D01*
X8434467Y-12052460D02*
X8415420Y-12061984D01*
X8415420Y-12061984D02*
X8396372Y-12061984D01*
X8396372Y-12061984D02*
X8377324Y-12052460D01*
X8377324Y-12052460D02*
X8367801Y-12042936D01*
X8367801Y-12042936D02*
X8358277Y-12023888D01*
X8358277Y-12023888D02*
X8348753Y-11985793D01*
X8348753Y-11985793D02*
X8348753Y-11938174D01*
X8348753Y-11938174D02*
X8358277Y-11900079D01*
X8358277Y-11900079D02*
X8367801Y-11881031D01*
X8367801Y-11881031D02*
X8377324Y-11871508D01*
X8377324Y-11871508D02*
X8396372Y-11861984D01*
X8548753Y-12042936D02*
X8558277Y-12052460D01*
X8558277Y-12052460D02*
X8548753Y-12061984D01*
X8548753Y-12061984D02*
X8539229Y-12052460D01*
X8539229Y-12052460D02*
X8548753Y-12042936D01*
X8548753Y-12042936D02*
X8548753Y-12061984D01*
X8672563Y-11947698D02*
X8653515Y-11938174D01*
X8653515Y-11938174D02*
X8643991Y-11928650D01*
X8643991Y-11928650D02*
X8634467Y-11909603D01*
X8634467Y-11909603D02*
X8634467Y-11900079D01*
X8634467Y-11900079D02*
X8643991Y-11881031D01*
X8643991Y-11881031D02*
X8653515Y-11871508D01*
X8653515Y-11871508D02*
X8672563Y-11861984D01*
X8672563Y-11861984D02*
X8710658Y-11861984D01*
X8710658Y-11861984D02*
X8729705Y-11871508D01*
X8729705Y-11871508D02*
X8739229Y-11881031D01*
X8739229Y-11881031D02*
X8748753Y-11900079D01*
X8748753Y-11900079D02*
X8748753Y-11909603D01*
X8748753Y-11909603D02*
X8739229Y-11928650D01*
X8739229Y-11928650D02*
X8729705Y-11938174D01*
X8729705Y-11938174D02*
X8710658Y-11947698D01*
X8710658Y-11947698D02*
X8672563Y-11947698D01*
X8672563Y-11947698D02*
X8653515Y-11957222D01*
X8653515Y-11957222D02*
X8643991Y-11966746D01*
X8643991Y-11966746D02*
X8634467Y-11985793D01*
X8634467Y-11985793D02*
X8634467Y-12023888D01*
X8634467Y-12023888D02*
X8643991Y-12042936D01*
X8643991Y-12042936D02*
X8653515Y-12052460D01*
X8653515Y-12052460D02*
X8672563Y-12061984D01*
X8672563Y-12061984D02*
X8710658Y-12061984D01*
X8710658Y-12061984D02*
X8729705Y-12052460D01*
X8729705Y-12052460D02*
X8739229Y-12042936D01*
X8739229Y-12042936D02*
X8748753Y-12023888D01*
X8748753Y-12023888D02*
X8748753Y-11985793D01*
X8748753Y-11985793D02*
X8739229Y-11966746D01*
X8739229Y-11966746D02*
X8729705Y-11957222D01*
X8729705Y-11957222D02*
X8710658Y-11947698D01*
X8863039Y-11947698D02*
X8843991Y-11938174D01*
X8843991Y-11938174D02*
X8834467Y-11928650D01*
X8834467Y-11928650D02*
X8824944Y-11909603D01*
X8824944Y-11909603D02*
X8824944Y-11900079D01*
X8824944Y-11900079D02*
X8834467Y-11881031D01*
X8834467Y-11881031D02*
X8843991Y-11871508D01*
X8843991Y-11871508D02*
X8863039Y-11861984D01*
X8863039Y-11861984D02*
X8901134Y-11861984D01*
X8901134Y-11861984D02*
X8920182Y-11871508D01*
X8920182Y-11871508D02*
X8929705Y-11881031D01*
X8929705Y-11881031D02*
X8939229Y-11900079D01*
X8939229Y-11900079D02*
X8939229Y-11909603D01*
X8939229Y-11909603D02*
X8929705Y-11928650D01*
X8929705Y-11928650D02*
X8920182Y-11938174D01*
X8920182Y-11938174D02*
X8901134Y-11947698D01*
X8901134Y-11947698D02*
X8863039Y-11947698D01*
X8863039Y-11947698D02*
X8843991Y-11957222D01*
X8843991Y-11957222D02*
X8834467Y-11966746D01*
X8834467Y-11966746D02*
X8824944Y-11985793D01*
X8824944Y-11985793D02*
X8824944Y-12023888D01*
X8824944Y-12023888D02*
X8834467Y-12042936D01*
X8834467Y-12042936D02*
X8843991Y-12052460D01*
X8843991Y-12052460D02*
X8863039Y-12061984D01*
X8863039Y-12061984D02*
X8901134Y-12061984D01*
X8901134Y-12061984D02*
X8920182Y-12052460D01*
X8920182Y-12052460D02*
X8929705Y-12042936D01*
X8929705Y-12042936D02*
X8939229Y-12023888D01*
X8939229Y-12023888D02*
X8939229Y-11985793D01*
X8939229Y-11985793D02*
X8929705Y-11966746D01*
X8929705Y-11966746D02*
X8920182Y-11957222D01*
X8920182Y-11957222D02*
X8901134Y-11947698D01*
X9034467Y-12061984D02*
X9072563Y-12061984D01*
X9072563Y-12061984D02*
X9091610Y-12052460D01*
X9091610Y-12052460D02*
X9101134Y-12042936D01*
X9101134Y-12042936D02*
X9120182Y-12014365D01*
X9120182Y-12014365D02*
X9129705Y-11976269D01*
X9129705Y-11976269D02*
X9129705Y-11900079D01*
X9129705Y-11900079D02*
X9120182Y-11881031D01*
X9120182Y-11881031D02*
X9110658Y-11871508D01*
X9110658Y-11871508D02*
X9091610Y-11861984D01*
X9091610Y-11861984D02*
X9053515Y-11861984D01*
X9053515Y-11861984D02*
X9034467Y-11871508D01*
X9034467Y-11871508D02*
X9024944Y-11881031D01*
X9024944Y-11881031D02*
X9015420Y-11900079D01*
X9015420Y-11900079D02*
X9015420Y-11947698D01*
X9015420Y-11947698D02*
X9024944Y-11966746D01*
X9024944Y-11966746D02*
X9034467Y-11976269D01*
X9034467Y-11976269D02*
X9053515Y-11985793D01*
X9053515Y-11985793D02*
X9091610Y-11985793D01*
X9091610Y-11985793D02*
X9110658Y-11976269D01*
X9110658Y-11976269D02*
X9120182Y-11966746D01*
X9120182Y-11966746D02*
X9129705Y-11947698D01*
X9215420Y-12061984D02*
X9215420Y-11928650D01*
X9215420Y-11947698D02*
X9224944Y-11938174D01*
X9224944Y-11938174D02*
X9243991Y-11928650D01*
X9243991Y-11928650D02*
X9272563Y-11928650D01*
X9272563Y-11928650D02*
X9291610Y-11938174D01*
X9291610Y-11938174D02*
X9301134Y-11957222D01*
X9301134Y-11957222D02*
X9301134Y-12061984D01*
X9301134Y-11957222D02*
X9310658Y-11938174D01*
X9310658Y-11938174D02*
X9329705Y-11928650D01*
X9329705Y-11928650D02*
X9358277Y-11928650D01*
X9358277Y-11928650D02*
X9377325Y-11938174D01*
X9377325Y-11938174D02*
X9386848Y-11957222D01*
X9386848Y-11957222D02*
X9386848Y-12061984D01*
X9482086Y-12061984D02*
X9482086Y-11928650D01*
X9482086Y-11947698D02*
X9491610Y-11938174D01*
X9491610Y-11938174D02*
X9510658Y-11928650D01*
X9510658Y-11928650D02*
X9539229Y-11928650D01*
X9539229Y-11928650D02*
X9558277Y-11938174D01*
X9558277Y-11938174D02*
X9567801Y-11957222D01*
X9567801Y-11957222D02*
X9567801Y-12061984D01*
X9567801Y-11957222D02*
X9577325Y-11938174D01*
X9577325Y-11938174D02*
X9596372Y-11928650D01*
X9596372Y-11928650D02*
X9624944Y-11928650D01*
X9624944Y-11928650D02*
X9643991Y-11938174D01*
X9643991Y-11938174D02*
X9653515Y-11957222D01*
X9653515Y-11957222D02*
X9653515Y-12061984D01*
X10043991Y-11852460D02*
X9872563Y-12109603D01*
X10301134Y-11861984D02*
X10320182Y-11861984D01*
X10320182Y-11861984D02*
X10339229Y-11871508D01*
X10339229Y-11871508D02*
X10348753Y-11881031D01*
X10348753Y-11881031D02*
X10358277Y-11900079D01*
X10358277Y-11900079D02*
X10367801Y-11938174D01*
X10367801Y-11938174D02*
X10367801Y-11985793D01*
X10367801Y-11985793D02*
X10358277Y-12023888D01*
X10358277Y-12023888D02*
X10348753Y-12042936D01*
X10348753Y-12042936D02*
X10339229Y-12052460D01*
X10339229Y-12052460D02*
X10320182Y-12061984D01*
X10320182Y-12061984D02*
X10301134Y-12061984D01*
X10301134Y-12061984D02*
X10282087Y-12052460D01*
X10282087Y-12052460D02*
X10272563Y-12042936D01*
X10272563Y-12042936D02*
X10263039Y-12023888D01*
X10263039Y-12023888D02*
X10253515Y-11985793D01*
X10253515Y-11985793D02*
X10253515Y-11938174D01*
X10253515Y-11938174D02*
X10263039Y-11900079D01*
X10263039Y-11900079D02*
X10272563Y-11881031D01*
X10272563Y-11881031D02*
X10282087Y-11871508D01*
X10282087Y-11871508D02*
X10301134Y-11861984D01*
X10453515Y-12042936D02*
X10463039Y-12052460D01*
X10463039Y-12052460D02*
X10453515Y-12061984D01*
X10453515Y-12061984D02*
X10443991Y-12052460D01*
X10443991Y-12052460D02*
X10453515Y-12042936D01*
X10453515Y-12042936D02*
X10453515Y-12061984D01*
X10586848Y-11861984D02*
X10605896Y-11861984D01*
X10605896Y-11861984D02*
X10624944Y-11871508D01*
X10624944Y-11871508D02*
X10634468Y-11881031D01*
X10634468Y-11881031D02*
X10643991Y-11900079D01*
X10643991Y-11900079D02*
X10653515Y-11938174D01*
X10653515Y-11938174D02*
X10653515Y-11985793D01*
X10653515Y-11985793D02*
X10643991Y-12023888D01*
X10643991Y-12023888D02*
X10634468Y-12042936D01*
X10634468Y-12042936D02*
X10624944Y-12052460D01*
X10624944Y-12052460D02*
X10605896Y-12061984D01*
X10605896Y-12061984D02*
X10586848Y-12061984D01*
X10586848Y-12061984D02*
X10567801Y-12052460D01*
X10567801Y-12052460D02*
X10558277Y-12042936D01*
X10558277Y-12042936D02*
X10548753Y-12023888D01*
X10548753Y-12023888D02*
X10539229Y-11985793D01*
X10539229Y-11985793D02*
X10539229Y-11938174D01*
X10539229Y-11938174D02*
X10548753Y-11900079D01*
X10548753Y-11900079D02*
X10558277Y-11881031D01*
X10558277Y-11881031D02*
X10567801Y-11871508D01*
X10567801Y-11871508D02*
X10586848Y-11861984D01*
X10720182Y-11861984D02*
X10843991Y-11861984D01*
X10843991Y-11861984D02*
X10777325Y-11938174D01*
X10777325Y-11938174D02*
X10805896Y-11938174D01*
X10805896Y-11938174D02*
X10824944Y-11947698D01*
X10824944Y-11947698D02*
X10834468Y-11957222D01*
X10834468Y-11957222D02*
X10843991Y-11976269D01*
X10843991Y-11976269D02*
X10843991Y-12023888D01*
X10843991Y-12023888D02*
X10834468Y-12042936D01*
X10834468Y-12042936D02*
X10824944Y-12052460D01*
X10824944Y-12052460D02*
X10805896Y-12061984D01*
X10805896Y-12061984D02*
X10748753Y-12061984D01*
X10748753Y-12061984D02*
X10729706Y-12052460D01*
X10729706Y-12052460D02*
X10720182Y-12042936D01*
X11024944Y-11861984D02*
X10929706Y-11861984D01*
X10929706Y-11861984D02*
X10920182Y-11957222D01*
X10920182Y-11957222D02*
X10929706Y-11947698D01*
X10929706Y-11947698D02*
X10948753Y-11938174D01*
X10948753Y-11938174D02*
X10996372Y-11938174D01*
X10996372Y-11938174D02*
X11015420Y-11947698D01*
X11015420Y-11947698D02*
X11024944Y-11957222D01*
X11024944Y-11957222D02*
X11034468Y-11976269D01*
X11034468Y-11976269D02*
X11034468Y-12023888D01*
X11034468Y-12023888D02*
X11024944Y-12042936D01*
X11024944Y-12042936D02*
X11015420Y-12052460D01*
X11015420Y-12052460D02*
X10996372Y-12061984D01*
X10996372Y-12061984D02*
X10948753Y-12061984D01*
X10948753Y-12061984D02*
X10929706Y-12052460D01*
X10929706Y-12052460D02*
X10920182Y-12042936D01*
X11158277Y-11861984D02*
X11177325Y-11861984D01*
X11177325Y-11861984D02*
X11196372Y-11871508D01*
X11196372Y-11871508D02*
X11205896Y-11881031D01*
X11205896Y-11881031D02*
X11215420Y-11900079D01*
X11215420Y-11900079D02*
X11224944Y-11938174D01*
X11224944Y-11938174D02*
X11224944Y-11985793D01*
X11224944Y-11985793D02*
X11215420Y-12023888D01*
X11215420Y-12023888D02*
X11205896Y-12042936D01*
X11205896Y-12042936D02*
X11196372Y-12052460D01*
X11196372Y-12052460D02*
X11177325Y-12061984D01*
X11177325Y-12061984D02*
X11158277Y-12061984D01*
X11158277Y-12061984D02*
X11139229Y-12052460D01*
X11139229Y-12052460D02*
X11129706Y-12042936D01*
X11129706Y-12042936D02*
X11120182Y-12023888D01*
X11120182Y-12023888D02*
X11110658Y-11985793D01*
X11110658Y-11985793D02*
X11110658Y-11938174D01*
X11110658Y-11938174D02*
X11120182Y-11900079D01*
X11120182Y-11900079D02*
X11129706Y-11881031D01*
X11129706Y-11881031D02*
X11139229Y-11871508D01*
X11139229Y-11871508D02*
X11158277Y-11861984D01*
X11301134Y-11861984D02*
X11301134Y-11900079D01*
X11377325Y-11861984D02*
X11377325Y-11900079D01*
X11672563Y-12138174D02*
X11663039Y-12128650D01*
X11663039Y-12128650D02*
X11643991Y-12100079D01*
X11643991Y-12100079D02*
X11634468Y-12081031D01*
X11634468Y-12081031D02*
X11624944Y-12052460D01*
X11624944Y-12052460D02*
X11615420Y-12004841D01*
X11615420Y-12004841D02*
X11615420Y-11966746D01*
X11615420Y-11966746D02*
X11624944Y-11919127D01*
X11624944Y-11919127D02*
X11634468Y-11890555D01*
X11634468Y-11890555D02*
X11643991Y-11871508D01*
X11643991Y-11871508D02*
X11663039Y-11842936D01*
X11663039Y-11842936D02*
X11672563Y-11833412D01*
X11739229Y-11881031D02*
X11748753Y-11871508D01*
X11748753Y-11871508D02*
X11767801Y-11861984D01*
X11767801Y-11861984D02*
X11815420Y-11861984D01*
X11815420Y-11861984D02*
X11834468Y-11871508D01*
X11834468Y-11871508D02*
X11843991Y-11881031D01*
X11843991Y-11881031D02*
X11853515Y-11900079D01*
X11853515Y-11900079D02*
X11853515Y-11919127D01*
X11853515Y-11919127D02*
X11843991Y-11947698D01*
X11843991Y-11947698D02*
X11729706Y-12061984D01*
X11729706Y-12061984D02*
X11853515Y-12061984D01*
X11967801Y-11947698D02*
X11948753Y-11938174D01*
X11948753Y-11938174D02*
X11939229Y-11928650D01*
X11939229Y-11928650D02*
X11929706Y-11909603D01*
X11929706Y-11909603D02*
X11929706Y-11900079D01*
X11929706Y-11900079D02*
X11939229Y-11881031D01*
X11939229Y-11881031D02*
X11948753Y-11871508D01*
X11948753Y-11871508D02*
X11967801Y-11861984D01*
X11967801Y-11861984D02*
X12005896Y-11861984D01*
X12005896Y-11861984D02*
X12024944Y-11871508D01*
X12024944Y-11871508D02*
X12034468Y-11881031D01*
X12034468Y-11881031D02*
X12043991Y-11900079D01*
X12043991Y-11900079D02*
X12043991Y-11909603D01*
X12043991Y-11909603D02*
X12034468Y-11928650D01*
X12034468Y-11928650D02*
X12024944Y-11938174D01*
X12024944Y-11938174D02*
X12005896Y-11947698D01*
X12005896Y-11947698D02*
X11967801Y-11947698D01*
X11967801Y-11947698D02*
X11948753Y-11957222D01*
X11948753Y-11957222D02*
X11939229Y-11966746D01*
X11939229Y-11966746D02*
X11929706Y-11985793D01*
X11929706Y-11985793D02*
X11929706Y-12023888D01*
X11929706Y-12023888D02*
X11939229Y-12042936D01*
X11939229Y-12042936D02*
X11948753Y-12052460D01*
X11948753Y-12052460D02*
X11967801Y-12061984D01*
X11967801Y-12061984D02*
X12005896Y-12061984D01*
X12005896Y-12061984D02*
X12024944Y-12052460D01*
X12024944Y-12052460D02*
X12034468Y-12042936D01*
X12034468Y-12042936D02*
X12043991Y-12023888D01*
X12043991Y-12023888D02*
X12043991Y-11985793D01*
X12043991Y-11985793D02*
X12034468Y-11966746D01*
X12034468Y-11966746D02*
X12024944Y-11957222D01*
X12024944Y-11957222D02*
X12005896Y-11947698D01*
X12282087Y-12061984D02*
X12282087Y-11861984D01*
X12367801Y-12061984D02*
X12367801Y-11957222D01*
X12367801Y-11957222D02*
X12358277Y-11938174D01*
X12358277Y-11938174D02*
X12339230Y-11928650D01*
X12339230Y-11928650D02*
X12310658Y-11928650D01*
X12310658Y-11928650D02*
X12291610Y-11938174D01*
X12291610Y-11938174D02*
X12282087Y-11947698D01*
X12491610Y-12061984D02*
X12472563Y-12052460D01*
X12472563Y-12052460D02*
X12463039Y-12042936D01*
X12463039Y-12042936D02*
X12453515Y-12023888D01*
X12453515Y-12023888D02*
X12453515Y-11966746D01*
X12453515Y-11966746D02*
X12463039Y-11947698D01*
X12463039Y-11947698D02*
X12472563Y-11938174D01*
X12472563Y-11938174D02*
X12491610Y-11928650D01*
X12491610Y-11928650D02*
X12520182Y-11928650D01*
X12520182Y-11928650D02*
X12539230Y-11938174D01*
X12539230Y-11938174D02*
X12548753Y-11947698D01*
X12548753Y-11947698D02*
X12558277Y-11966746D01*
X12558277Y-11966746D02*
X12558277Y-12023888D01*
X12558277Y-12023888D02*
X12548753Y-12042936D01*
X12548753Y-12042936D02*
X12539230Y-12052460D01*
X12539230Y-12052460D02*
X12520182Y-12061984D01*
X12520182Y-12061984D02*
X12491610Y-12061984D01*
X12672563Y-12061984D02*
X12653515Y-12052460D01*
X12653515Y-12052460D02*
X12643991Y-12033412D01*
X12643991Y-12033412D02*
X12643991Y-11861984D01*
X12824944Y-12052460D02*
X12805896Y-12061984D01*
X12805896Y-12061984D02*
X12767801Y-12061984D01*
X12767801Y-12061984D02*
X12748753Y-12052460D01*
X12748753Y-12052460D02*
X12739230Y-12033412D01*
X12739230Y-12033412D02*
X12739230Y-11957222D01*
X12739230Y-11957222D02*
X12748753Y-11938174D01*
X12748753Y-11938174D02*
X12767801Y-11928650D01*
X12767801Y-11928650D02*
X12805896Y-11928650D01*
X12805896Y-11928650D02*
X12824944Y-11938174D01*
X12824944Y-11938174D02*
X12834468Y-11957222D01*
X12834468Y-11957222D02*
X12834468Y-11976269D01*
X12834468Y-11976269D02*
X12739230Y-11995317D01*
X12910658Y-12052460D02*
X12929706Y-12061984D01*
X12929706Y-12061984D02*
X12967801Y-12061984D01*
X12967801Y-12061984D02*
X12986849Y-12052460D01*
X12986849Y-12052460D02*
X12996372Y-12033412D01*
X12996372Y-12033412D02*
X12996372Y-12023888D01*
X12996372Y-12023888D02*
X12986849Y-12004841D01*
X12986849Y-12004841D02*
X12967801Y-11995317D01*
X12967801Y-11995317D02*
X12939230Y-11995317D01*
X12939230Y-11995317D02*
X12920182Y-11985793D01*
X12920182Y-11985793D02*
X12910658Y-11966746D01*
X12910658Y-11966746D02*
X12910658Y-11957222D01*
X12910658Y-11957222D02*
X12920182Y-11938174D01*
X12920182Y-11938174D02*
X12939230Y-11928650D01*
X12939230Y-11928650D02*
X12967801Y-11928650D01*
X12967801Y-11928650D02*
X12986849Y-11938174D01*
X13063039Y-12138174D02*
X13072563Y-12128650D01*
X13072563Y-12128650D02*
X13091611Y-12100079D01*
X13091611Y-12100079D02*
X13101134Y-12081031D01*
X13101134Y-12081031D02*
X13110658Y-12052460D01*
X13110658Y-12052460D02*
X13120182Y-12004841D01*
X13120182Y-12004841D02*
X13120182Y-11966746D01*
X13120182Y-11966746D02*
X13110658Y-11919127D01*
X13110658Y-11919127D02*
X13101134Y-11890555D01*
X13101134Y-11890555D02*
X13091611Y-11871508D01*
X13091611Y-11871508D02*
X13072563Y-11842936D01*
X13072563Y-11842936D02*
X13063039Y-11833412D01*
D12*
X8083588Y-12268088D02*
X8083588Y-12200912D01*
X8016412Y-12200912D01*
X8016412Y-12268088D01*
X8083588Y-12268088D01*
D11*
X8396372Y-12125984D02*
X8415420Y-12125984D01*
X8415420Y-12125984D02*
X8434467Y-12135508D01*
X8434467Y-12135508D02*
X8443991Y-12145031D01*
X8443991Y-12145031D02*
X8453515Y-12164079D01*
X8453515Y-12164079D02*
X8463039Y-12202174D01*
X8463039Y-12202174D02*
X8463039Y-12249793D01*
X8463039Y-12249793D02*
X8453515Y-12287888D01*
X8453515Y-12287888D02*
X8443991Y-12306936D01*
X8443991Y-12306936D02*
X8434467Y-12316460D01*
X8434467Y-12316460D02*
X8415420Y-12325984D01*
X8415420Y-12325984D02*
X8396372Y-12325984D01*
X8396372Y-12325984D02*
X8377324Y-12316460D01*
X8377324Y-12316460D02*
X8367801Y-12306936D01*
X8367801Y-12306936D02*
X8358277Y-12287888D01*
X8358277Y-12287888D02*
X8348753Y-12249793D01*
X8348753Y-12249793D02*
X8348753Y-12202174D01*
X8348753Y-12202174D02*
X8358277Y-12164079D01*
X8358277Y-12164079D02*
X8367801Y-12145031D01*
X8367801Y-12145031D02*
X8377324Y-12135508D01*
X8377324Y-12135508D02*
X8396372Y-12125984D01*
X8548753Y-12306936D02*
X8558277Y-12316460D01*
X8558277Y-12316460D02*
X8548753Y-12325984D01*
X8548753Y-12325984D02*
X8539229Y-12316460D01*
X8539229Y-12316460D02*
X8548753Y-12306936D01*
X8548753Y-12306936D02*
X8548753Y-12325984D01*
X8653515Y-12325984D02*
X8691610Y-12325984D01*
X8691610Y-12325984D02*
X8710658Y-12316460D01*
X8710658Y-12316460D02*
X8720182Y-12306936D01*
X8720182Y-12306936D02*
X8739229Y-12278365D01*
X8739229Y-12278365D02*
X8748753Y-12240269D01*
X8748753Y-12240269D02*
X8748753Y-12164079D01*
X8748753Y-12164079D02*
X8739229Y-12145031D01*
X8739229Y-12145031D02*
X8729705Y-12135508D01*
X8729705Y-12135508D02*
X8710658Y-12125984D01*
X8710658Y-12125984D02*
X8672563Y-12125984D01*
X8672563Y-12125984D02*
X8653515Y-12135508D01*
X8653515Y-12135508D02*
X8643991Y-12145031D01*
X8643991Y-12145031D02*
X8634467Y-12164079D01*
X8634467Y-12164079D02*
X8634467Y-12211698D01*
X8634467Y-12211698D02*
X8643991Y-12230746D01*
X8643991Y-12230746D02*
X8653515Y-12240269D01*
X8653515Y-12240269D02*
X8672563Y-12249793D01*
X8672563Y-12249793D02*
X8710658Y-12249793D01*
X8710658Y-12249793D02*
X8729705Y-12240269D01*
X8729705Y-12240269D02*
X8739229Y-12230746D01*
X8739229Y-12230746D02*
X8748753Y-12211698D01*
X8929705Y-12125984D02*
X8834467Y-12125984D01*
X8834467Y-12125984D02*
X8824944Y-12221222D01*
X8824944Y-12221222D02*
X8834467Y-12211698D01*
X8834467Y-12211698D02*
X8853515Y-12202174D01*
X8853515Y-12202174D02*
X8901134Y-12202174D01*
X8901134Y-12202174D02*
X8920182Y-12211698D01*
X8920182Y-12211698D02*
X8929705Y-12221222D01*
X8929705Y-12221222D02*
X8939229Y-12240269D01*
X8939229Y-12240269D02*
X8939229Y-12287888D01*
X8939229Y-12287888D02*
X8929705Y-12306936D01*
X8929705Y-12306936D02*
X8920182Y-12316460D01*
X8920182Y-12316460D02*
X8901134Y-12325984D01*
X8901134Y-12325984D02*
X8853515Y-12325984D01*
X8853515Y-12325984D02*
X8834467Y-12316460D01*
X8834467Y-12316460D02*
X8824944Y-12306936D01*
X9063039Y-12125984D02*
X9082086Y-12125984D01*
X9082086Y-12125984D02*
X9101134Y-12135508D01*
X9101134Y-12135508D02*
X9110658Y-12145031D01*
X9110658Y-12145031D02*
X9120182Y-12164079D01*
X9120182Y-12164079D02*
X9129705Y-12202174D01*
X9129705Y-12202174D02*
X9129705Y-12249793D01*
X9129705Y-12249793D02*
X9120182Y-12287888D01*
X9120182Y-12287888D02*
X9110658Y-12306936D01*
X9110658Y-12306936D02*
X9101134Y-12316460D01*
X9101134Y-12316460D02*
X9082086Y-12325984D01*
X9082086Y-12325984D02*
X9063039Y-12325984D01*
X9063039Y-12325984D02*
X9043991Y-12316460D01*
X9043991Y-12316460D02*
X9034467Y-12306936D01*
X9034467Y-12306936D02*
X9024944Y-12287888D01*
X9024944Y-12287888D02*
X9015420Y-12249793D01*
X9015420Y-12249793D02*
X9015420Y-12202174D01*
X9015420Y-12202174D02*
X9024944Y-12164079D01*
X9024944Y-12164079D02*
X9034467Y-12145031D01*
X9034467Y-12145031D02*
X9043991Y-12135508D01*
X9043991Y-12135508D02*
X9063039Y-12125984D01*
X9215420Y-12325984D02*
X9215420Y-12192650D01*
X9215420Y-12211698D02*
X9224944Y-12202174D01*
X9224944Y-12202174D02*
X9243991Y-12192650D01*
X9243991Y-12192650D02*
X9272563Y-12192650D01*
X9272563Y-12192650D02*
X9291610Y-12202174D01*
X9291610Y-12202174D02*
X9301134Y-12221222D01*
X9301134Y-12221222D02*
X9301134Y-12325984D01*
X9301134Y-12221222D02*
X9310658Y-12202174D01*
X9310658Y-12202174D02*
X9329705Y-12192650D01*
X9329705Y-12192650D02*
X9358277Y-12192650D01*
X9358277Y-12192650D02*
X9377325Y-12202174D01*
X9377325Y-12202174D02*
X9386848Y-12221222D01*
X9386848Y-12221222D02*
X9386848Y-12325984D01*
X9482086Y-12325984D02*
X9482086Y-12192650D01*
X9482086Y-12211698D02*
X9491610Y-12202174D01*
X9491610Y-12202174D02*
X9510658Y-12192650D01*
X9510658Y-12192650D02*
X9539229Y-12192650D01*
X9539229Y-12192650D02*
X9558277Y-12202174D01*
X9558277Y-12202174D02*
X9567801Y-12221222D01*
X9567801Y-12221222D02*
X9567801Y-12325984D01*
X9567801Y-12221222D02*
X9577325Y-12202174D01*
X9577325Y-12202174D02*
X9596372Y-12192650D01*
X9596372Y-12192650D02*
X9624944Y-12192650D01*
X9624944Y-12192650D02*
X9643991Y-12202174D01*
X9643991Y-12202174D02*
X9653515Y-12221222D01*
X9653515Y-12221222D02*
X9653515Y-12325984D01*
X10043991Y-12116460D02*
X9872563Y-12373603D01*
X10301134Y-12125984D02*
X10320182Y-12125984D01*
X10320182Y-12125984D02*
X10339229Y-12135508D01*
X10339229Y-12135508D02*
X10348753Y-12145031D01*
X10348753Y-12145031D02*
X10358277Y-12164079D01*
X10358277Y-12164079D02*
X10367801Y-12202174D01*
X10367801Y-12202174D02*
X10367801Y-12249793D01*
X10367801Y-12249793D02*
X10358277Y-12287888D01*
X10358277Y-12287888D02*
X10348753Y-12306936D01*
X10348753Y-12306936D02*
X10339229Y-12316460D01*
X10339229Y-12316460D02*
X10320182Y-12325984D01*
X10320182Y-12325984D02*
X10301134Y-12325984D01*
X10301134Y-12325984D02*
X10282087Y-12316460D01*
X10282087Y-12316460D02*
X10272563Y-12306936D01*
X10272563Y-12306936D02*
X10263039Y-12287888D01*
X10263039Y-12287888D02*
X10253515Y-12249793D01*
X10253515Y-12249793D02*
X10253515Y-12202174D01*
X10253515Y-12202174D02*
X10263039Y-12164079D01*
X10263039Y-12164079D02*
X10272563Y-12145031D01*
X10272563Y-12145031D02*
X10282087Y-12135508D01*
X10282087Y-12135508D02*
X10301134Y-12125984D01*
X10453515Y-12306936D02*
X10463039Y-12316460D01*
X10463039Y-12316460D02*
X10453515Y-12325984D01*
X10453515Y-12325984D02*
X10443991Y-12316460D01*
X10443991Y-12316460D02*
X10453515Y-12306936D01*
X10453515Y-12306936D02*
X10453515Y-12325984D01*
X10586848Y-12125984D02*
X10605896Y-12125984D01*
X10605896Y-12125984D02*
X10624944Y-12135508D01*
X10624944Y-12135508D02*
X10634468Y-12145031D01*
X10634468Y-12145031D02*
X10643991Y-12164079D01*
X10643991Y-12164079D02*
X10653515Y-12202174D01*
X10653515Y-12202174D02*
X10653515Y-12249793D01*
X10653515Y-12249793D02*
X10643991Y-12287888D01*
X10643991Y-12287888D02*
X10634468Y-12306936D01*
X10634468Y-12306936D02*
X10624944Y-12316460D01*
X10624944Y-12316460D02*
X10605896Y-12325984D01*
X10605896Y-12325984D02*
X10586848Y-12325984D01*
X10586848Y-12325984D02*
X10567801Y-12316460D01*
X10567801Y-12316460D02*
X10558277Y-12306936D01*
X10558277Y-12306936D02*
X10548753Y-12287888D01*
X10548753Y-12287888D02*
X10539229Y-12249793D01*
X10539229Y-12249793D02*
X10539229Y-12202174D01*
X10539229Y-12202174D02*
X10548753Y-12164079D01*
X10548753Y-12164079D02*
X10558277Y-12145031D01*
X10558277Y-12145031D02*
X10567801Y-12135508D01*
X10567801Y-12135508D02*
X10586848Y-12125984D01*
X10720182Y-12125984D02*
X10843991Y-12125984D01*
X10843991Y-12125984D02*
X10777325Y-12202174D01*
X10777325Y-12202174D02*
X10805896Y-12202174D01*
X10805896Y-12202174D02*
X10824944Y-12211698D01*
X10824944Y-12211698D02*
X10834468Y-12221222D01*
X10834468Y-12221222D02*
X10843991Y-12240269D01*
X10843991Y-12240269D02*
X10843991Y-12287888D01*
X10843991Y-12287888D02*
X10834468Y-12306936D01*
X10834468Y-12306936D02*
X10824944Y-12316460D01*
X10824944Y-12316460D02*
X10805896Y-12325984D01*
X10805896Y-12325984D02*
X10748753Y-12325984D01*
X10748753Y-12325984D02*
X10729706Y-12316460D01*
X10729706Y-12316460D02*
X10720182Y-12306936D01*
X10910658Y-12125984D02*
X11043991Y-12125984D01*
X11043991Y-12125984D02*
X10958277Y-12325984D01*
X11205896Y-12192650D02*
X11205896Y-12325984D01*
X11158277Y-12116460D02*
X11110658Y-12259317D01*
X11110658Y-12259317D02*
X11234467Y-12259317D01*
X11301134Y-12125984D02*
X11301134Y-12164079D01*
X11377325Y-12125984D02*
X11377325Y-12164079D01*
X11672563Y-12402174D02*
X11663039Y-12392650D01*
X11663039Y-12392650D02*
X11643991Y-12364079D01*
X11643991Y-12364079D02*
X11634468Y-12345031D01*
X11634468Y-12345031D02*
X11624944Y-12316460D01*
X11624944Y-12316460D02*
X11615420Y-12268841D01*
X11615420Y-12268841D02*
X11615420Y-12230746D01*
X11615420Y-12230746D02*
X11624944Y-12183127D01*
X11624944Y-12183127D02*
X11634468Y-12154555D01*
X11634468Y-12154555D02*
X11643991Y-12135508D01*
X11643991Y-12135508D02*
X11663039Y-12106936D01*
X11663039Y-12106936D02*
X11672563Y-12097412D01*
X11739229Y-12145031D02*
X11748753Y-12135508D01*
X11748753Y-12135508D02*
X11767801Y-12125984D01*
X11767801Y-12125984D02*
X11815420Y-12125984D01*
X11815420Y-12125984D02*
X11834468Y-12135508D01*
X11834468Y-12135508D02*
X11843991Y-12145031D01*
X11843991Y-12145031D02*
X11853515Y-12164079D01*
X11853515Y-12164079D02*
X11853515Y-12183127D01*
X11853515Y-12183127D02*
X11843991Y-12211698D01*
X11843991Y-12211698D02*
X11729706Y-12325984D01*
X11729706Y-12325984D02*
X11853515Y-12325984D01*
X12043991Y-12325984D02*
X11929706Y-12325984D01*
X11986848Y-12325984D02*
X11986848Y-12125984D01*
X11986848Y-12125984D02*
X11967801Y-12154555D01*
X11967801Y-12154555D02*
X11948753Y-12173603D01*
X11948753Y-12173603D02*
X11929706Y-12183127D01*
X12282087Y-12325984D02*
X12282087Y-12125984D01*
X12367801Y-12325984D02*
X12367801Y-12221222D01*
X12367801Y-12221222D02*
X12358277Y-12202174D01*
X12358277Y-12202174D02*
X12339230Y-12192650D01*
X12339230Y-12192650D02*
X12310658Y-12192650D01*
X12310658Y-12192650D02*
X12291610Y-12202174D01*
X12291610Y-12202174D02*
X12282087Y-12211698D01*
X12491610Y-12325984D02*
X12472563Y-12316460D01*
X12472563Y-12316460D02*
X12463039Y-12306936D01*
X12463039Y-12306936D02*
X12453515Y-12287888D01*
X12453515Y-12287888D02*
X12453515Y-12230746D01*
X12453515Y-12230746D02*
X12463039Y-12211698D01*
X12463039Y-12211698D02*
X12472563Y-12202174D01*
X12472563Y-12202174D02*
X12491610Y-12192650D01*
X12491610Y-12192650D02*
X12520182Y-12192650D01*
X12520182Y-12192650D02*
X12539230Y-12202174D01*
X12539230Y-12202174D02*
X12548753Y-12211698D01*
X12548753Y-12211698D02*
X12558277Y-12230746D01*
X12558277Y-12230746D02*
X12558277Y-12287888D01*
X12558277Y-12287888D02*
X12548753Y-12306936D01*
X12548753Y-12306936D02*
X12539230Y-12316460D01*
X12539230Y-12316460D02*
X12520182Y-12325984D01*
X12520182Y-12325984D02*
X12491610Y-12325984D01*
X12672563Y-12325984D02*
X12653515Y-12316460D01*
X12653515Y-12316460D02*
X12643991Y-12297412D01*
X12643991Y-12297412D02*
X12643991Y-12125984D01*
X12824944Y-12316460D02*
X12805896Y-12325984D01*
X12805896Y-12325984D02*
X12767801Y-12325984D01*
X12767801Y-12325984D02*
X12748753Y-12316460D01*
X12748753Y-12316460D02*
X12739230Y-12297412D01*
X12739230Y-12297412D02*
X12739230Y-12221222D01*
X12739230Y-12221222D02*
X12748753Y-12202174D01*
X12748753Y-12202174D02*
X12767801Y-12192650D01*
X12767801Y-12192650D02*
X12805896Y-12192650D01*
X12805896Y-12192650D02*
X12824944Y-12202174D01*
X12824944Y-12202174D02*
X12834468Y-12221222D01*
X12834468Y-12221222D02*
X12834468Y-12240269D01*
X12834468Y-12240269D02*
X12739230Y-12259317D01*
X12910658Y-12316460D02*
X12929706Y-12325984D01*
X12929706Y-12325984D02*
X12967801Y-12325984D01*
X12967801Y-12325984D02*
X12986849Y-12316460D01*
X12986849Y-12316460D02*
X12996372Y-12297412D01*
X12996372Y-12297412D02*
X12996372Y-12287888D01*
X12996372Y-12287888D02*
X12986849Y-12268841D01*
X12986849Y-12268841D02*
X12967801Y-12259317D01*
X12967801Y-12259317D02*
X12939230Y-12259317D01*
X12939230Y-12259317D02*
X12920182Y-12249793D01*
X12920182Y-12249793D02*
X12910658Y-12230746D01*
X12910658Y-12230746D02*
X12910658Y-12221222D01*
X12910658Y-12221222D02*
X12920182Y-12202174D01*
X12920182Y-12202174D02*
X12939230Y-12192650D01*
X12939230Y-12192650D02*
X12967801Y-12192650D01*
X12967801Y-12192650D02*
X12986849Y-12202174D01*
X13063039Y-12402174D02*
X13072563Y-12392650D01*
X13072563Y-12392650D02*
X13091611Y-12364079D01*
X13091611Y-12364079D02*
X13101134Y-12345031D01*
X13101134Y-12345031D02*
X13110658Y-12316460D01*
X13110658Y-12316460D02*
X13120182Y-12268841D01*
X13120182Y-12268841D02*
X13120182Y-12230746D01*
X13120182Y-12230746D02*
X13110658Y-12183127D01*
X13110658Y-12183127D02*
X13101134Y-12154555D01*
X13101134Y-12154555D02*
X13091611Y-12135508D01*
X13091611Y-12135508D02*
X13072563Y-12106936D01*
X13072563Y-12106936D02*
X13063039Y-12097412D01*
D12*
X8047500Y-12548500D02*
X8097500Y-12498500D01*
X8047500Y-12448500D01*
X7997500Y-12498500D01*
X8047500Y-12548500D01*
D11*
X8463039Y-12589984D02*
X8348753Y-12589984D01*
X8405896Y-12589984D02*
X8405896Y-12389984D01*
X8405896Y-12389984D02*
X8386848Y-12418555D01*
X8386848Y-12418555D02*
X8367801Y-12437603D01*
X8367801Y-12437603D02*
X8348753Y-12447127D01*
X8548753Y-12570936D02*
X8558277Y-12580460D01*
X8558277Y-12580460D02*
X8548753Y-12589984D01*
X8548753Y-12589984D02*
X8539229Y-12580460D01*
X8539229Y-12580460D02*
X8548753Y-12570936D01*
X8548753Y-12570936D02*
X8548753Y-12589984D01*
X8682086Y-12389984D02*
X8701134Y-12389984D01*
X8701134Y-12389984D02*
X8720182Y-12399508D01*
X8720182Y-12399508D02*
X8729705Y-12409031D01*
X8729705Y-12409031D02*
X8739229Y-12428079D01*
X8739229Y-12428079D02*
X8748753Y-12466174D01*
X8748753Y-12466174D02*
X8748753Y-12513793D01*
X8748753Y-12513793D02*
X8739229Y-12551888D01*
X8739229Y-12551888D02*
X8729705Y-12570936D01*
X8729705Y-12570936D02*
X8720182Y-12580460D01*
X8720182Y-12580460D02*
X8701134Y-12589984D01*
X8701134Y-12589984D02*
X8682086Y-12589984D01*
X8682086Y-12589984D02*
X8663039Y-12580460D01*
X8663039Y-12580460D02*
X8653515Y-12570936D01*
X8653515Y-12570936D02*
X8643991Y-12551888D01*
X8643991Y-12551888D02*
X8634467Y-12513793D01*
X8634467Y-12513793D02*
X8634467Y-12466174D01*
X8634467Y-12466174D02*
X8643991Y-12428079D01*
X8643991Y-12428079D02*
X8653515Y-12409031D01*
X8653515Y-12409031D02*
X8663039Y-12399508D01*
X8663039Y-12399508D02*
X8682086Y-12389984D01*
X8872563Y-12389984D02*
X8891610Y-12389984D01*
X8891610Y-12389984D02*
X8910658Y-12399508D01*
X8910658Y-12399508D02*
X8920182Y-12409031D01*
X8920182Y-12409031D02*
X8929705Y-12428079D01*
X8929705Y-12428079D02*
X8939229Y-12466174D01*
X8939229Y-12466174D02*
X8939229Y-12513793D01*
X8939229Y-12513793D02*
X8929705Y-12551888D01*
X8929705Y-12551888D02*
X8920182Y-12570936D01*
X8920182Y-12570936D02*
X8910658Y-12580460D01*
X8910658Y-12580460D02*
X8891610Y-12589984D01*
X8891610Y-12589984D02*
X8872563Y-12589984D01*
X8872563Y-12589984D02*
X8853515Y-12580460D01*
X8853515Y-12580460D02*
X8843991Y-12570936D01*
X8843991Y-12570936D02*
X8834467Y-12551888D01*
X8834467Y-12551888D02*
X8824944Y-12513793D01*
X8824944Y-12513793D02*
X8824944Y-12466174D01*
X8824944Y-12466174D02*
X8834467Y-12428079D01*
X8834467Y-12428079D02*
X8843991Y-12409031D01*
X8843991Y-12409031D02*
X8853515Y-12399508D01*
X8853515Y-12399508D02*
X8872563Y-12389984D01*
X9063039Y-12389984D02*
X9082086Y-12389984D01*
X9082086Y-12389984D02*
X9101134Y-12399508D01*
X9101134Y-12399508D02*
X9110658Y-12409031D01*
X9110658Y-12409031D02*
X9120182Y-12428079D01*
X9120182Y-12428079D02*
X9129705Y-12466174D01*
X9129705Y-12466174D02*
X9129705Y-12513793D01*
X9129705Y-12513793D02*
X9120182Y-12551888D01*
X9120182Y-12551888D02*
X9110658Y-12570936D01*
X9110658Y-12570936D02*
X9101134Y-12580460D01*
X9101134Y-12580460D02*
X9082086Y-12589984D01*
X9082086Y-12589984D02*
X9063039Y-12589984D01*
X9063039Y-12589984D02*
X9043991Y-12580460D01*
X9043991Y-12580460D02*
X9034467Y-12570936D01*
X9034467Y-12570936D02*
X9024944Y-12551888D01*
X9024944Y-12551888D02*
X9015420Y-12513793D01*
X9015420Y-12513793D02*
X9015420Y-12466174D01*
X9015420Y-12466174D02*
X9024944Y-12428079D01*
X9024944Y-12428079D02*
X9034467Y-12409031D01*
X9034467Y-12409031D02*
X9043991Y-12399508D01*
X9043991Y-12399508D02*
X9063039Y-12389984D01*
X9215420Y-12589984D02*
X9215420Y-12456650D01*
X9215420Y-12475698D02*
X9224944Y-12466174D01*
X9224944Y-12466174D02*
X9243991Y-12456650D01*
X9243991Y-12456650D02*
X9272563Y-12456650D01*
X9272563Y-12456650D02*
X9291610Y-12466174D01*
X9291610Y-12466174D02*
X9301134Y-12485222D01*
X9301134Y-12485222D02*
X9301134Y-12589984D01*
X9301134Y-12485222D02*
X9310658Y-12466174D01*
X9310658Y-12466174D02*
X9329705Y-12456650D01*
X9329705Y-12456650D02*
X9358277Y-12456650D01*
X9358277Y-12456650D02*
X9377325Y-12466174D01*
X9377325Y-12466174D02*
X9386848Y-12485222D01*
X9386848Y-12485222D02*
X9386848Y-12589984D01*
X9482086Y-12589984D02*
X9482086Y-12456650D01*
X9482086Y-12475698D02*
X9491610Y-12466174D01*
X9491610Y-12466174D02*
X9510658Y-12456650D01*
X9510658Y-12456650D02*
X9539229Y-12456650D01*
X9539229Y-12456650D02*
X9558277Y-12466174D01*
X9558277Y-12466174D02*
X9567801Y-12485222D01*
X9567801Y-12485222D02*
X9567801Y-12589984D01*
X9567801Y-12485222D02*
X9577325Y-12466174D01*
X9577325Y-12466174D02*
X9596372Y-12456650D01*
X9596372Y-12456650D02*
X9624944Y-12456650D01*
X9624944Y-12456650D02*
X9643991Y-12466174D01*
X9643991Y-12466174D02*
X9653515Y-12485222D01*
X9653515Y-12485222D02*
X9653515Y-12589984D01*
X10043991Y-12380460D02*
X9872563Y-12637603D01*
X10301134Y-12389984D02*
X10320182Y-12389984D01*
X10320182Y-12389984D02*
X10339229Y-12399508D01*
X10339229Y-12399508D02*
X10348753Y-12409031D01*
X10348753Y-12409031D02*
X10358277Y-12428079D01*
X10358277Y-12428079D02*
X10367801Y-12466174D01*
X10367801Y-12466174D02*
X10367801Y-12513793D01*
X10367801Y-12513793D02*
X10358277Y-12551888D01*
X10358277Y-12551888D02*
X10348753Y-12570936D01*
X10348753Y-12570936D02*
X10339229Y-12580460D01*
X10339229Y-12580460D02*
X10320182Y-12589984D01*
X10320182Y-12589984D02*
X10301134Y-12589984D01*
X10301134Y-12589984D02*
X10282087Y-12580460D01*
X10282087Y-12580460D02*
X10272563Y-12570936D01*
X10272563Y-12570936D02*
X10263039Y-12551888D01*
X10263039Y-12551888D02*
X10253515Y-12513793D01*
X10253515Y-12513793D02*
X10253515Y-12466174D01*
X10253515Y-12466174D02*
X10263039Y-12428079D01*
X10263039Y-12428079D02*
X10272563Y-12409031D01*
X10272563Y-12409031D02*
X10282087Y-12399508D01*
X10282087Y-12399508D02*
X10301134Y-12389984D01*
X10453515Y-12570936D02*
X10463039Y-12580460D01*
X10463039Y-12580460D02*
X10453515Y-12589984D01*
X10453515Y-12589984D02*
X10443991Y-12580460D01*
X10443991Y-12580460D02*
X10453515Y-12570936D01*
X10453515Y-12570936D02*
X10453515Y-12589984D01*
X10586848Y-12389984D02*
X10605896Y-12389984D01*
X10605896Y-12389984D02*
X10624944Y-12399508D01*
X10624944Y-12399508D02*
X10634468Y-12409031D01*
X10634468Y-12409031D02*
X10643991Y-12428079D01*
X10643991Y-12428079D02*
X10653515Y-12466174D01*
X10653515Y-12466174D02*
X10653515Y-12513793D01*
X10653515Y-12513793D02*
X10643991Y-12551888D01*
X10643991Y-12551888D02*
X10634468Y-12570936D01*
X10634468Y-12570936D02*
X10624944Y-12580460D01*
X10624944Y-12580460D02*
X10605896Y-12589984D01*
X10605896Y-12589984D02*
X10586848Y-12589984D01*
X10586848Y-12589984D02*
X10567801Y-12580460D01*
X10567801Y-12580460D02*
X10558277Y-12570936D01*
X10558277Y-12570936D02*
X10548753Y-12551888D01*
X10548753Y-12551888D02*
X10539229Y-12513793D01*
X10539229Y-12513793D02*
X10539229Y-12466174D01*
X10539229Y-12466174D02*
X10548753Y-12428079D01*
X10548753Y-12428079D02*
X10558277Y-12409031D01*
X10558277Y-12409031D02*
X10567801Y-12399508D01*
X10567801Y-12399508D02*
X10586848Y-12389984D01*
X10720182Y-12389984D02*
X10843991Y-12389984D01*
X10843991Y-12389984D02*
X10777325Y-12466174D01*
X10777325Y-12466174D02*
X10805896Y-12466174D01*
X10805896Y-12466174D02*
X10824944Y-12475698D01*
X10824944Y-12475698D02*
X10834468Y-12485222D01*
X10834468Y-12485222D02*
X10843991Y-12504269D01*
X10843991Y-12504269D02*
X10843991Y-12551888D01*
X10843991Y-12551888D02*
X10834468Y-12570936D01*
X10834468Y-12570936D02*
X10824944Y-12580460D01*
X10824944Y-12580460D02*
X10805896Y-12589984D01*
X10805896Y-12589984D02*
X10748753Y-12589984D01*
X10748753Y-12589984D02*
X10729706Y-12580460D01*
X10729706Y-12580460D02*
X10720182Y-12570936D01*
X10939229Y-12589984D02*
X10977325Y-12589984D01*
X10977325Y-12589984D02*
X10996372Y-12580460D01*
X10996372Y-12580460D02*
X11005896Y-12570936D01*
X11005896Y-12570936D02*
X11024944Y-12542365D01*
X11024944Y-12542365D02*
X11034468Y-12504269D01*
X11034468Y-12504269D02*
X11034468Y-12428079D01*
X11034468Y-12428079D02*
X11024944Y-12409031D01*
X11024944Y-12409031D02*
X11015420Y-12399508D01*
X11015420Y-12399508D02*
X10996372Y-12389984D01*
X10996372Y-12389984D02*
X10958277Y-12389984D01*
X10958277Y-12389984D02*
X10939229Y-12399508D01*
X10939229Y-12399508D02*
X10929706Y-12409031D01*
X10929706Y-12409031D02*
X10920182Y-12428079D01*
X10920182Y-12428079D02*
X10920182Y-12475698D01*
X10920182Y-12475698D02*
X10929706Y-12494746D01*
X10929706Y-12494746D02*
X10939229Y-12504269D01*
X10939229Y-12504269D02*
X10958277Y-12513793D01*
X10958277Y-12513793D02*
X10996372Y-12513793D01*
X10996372Y-12513793D02*
X11015420Y-12504269D01*
X11015420Y-12504269D02*
X11024944Y-12494746D01*
X11024944Y-12494746D02*
X11034468Y-12475698D01*
X11205896Y-12456650D02*
X11205896Y-12589984D01*
X11158277Y-12380460D02*
X11110658Y-12523317D01*
X11110658Y-12523317D02*
X11234467Y-12523317D01*
X11301134Y-12389984D02*
X11301134Y-12428079D01*
X11377325Y-12389984D02*
X11377325Y-12428079D01*
X11672563Y-12666174D02*
X11663039Y-12656650D01*
X11663039Y-12656650D02*
X11643991Y-12628079D01*
X11643991Y-12628079D02*
X11634468Y-12609031D01*
X11634468Y-12609031D02*
X11624944Y-12580460D01*
X11624944Y-12580460D02*
X11615420Y-12532841D01*
X11615420Y-12532841D02*
X11615420Y-12494746D01*
X11615420Y-12494746D02*
X11624944Y-12447127D01*
X11624944Y-12447127D02*
X11634468Y-12418555D01*
X11634468Y-12418555D02*
X11643991Y-12399508D01*
X11643991Y-12399508D02*
X11663039Y-12370936D01*
X11663039Y-12370936D02*
X11672563Y-12361412D01*
X11853515Y-12589984D02*
X11739229Y-12589984D01*
X11796372Y-12589984D02*
X11796372Y-12389984D01*
X11796372Y-12389984D02*
X11777325Y-12418555D01*
X11777325Y-12418555D02*
X11758277Y-12437603D01*
X11758277Y-12437603D02*
X11739229Y-12447127D01*
X11977325Y-12389984D02*
X11996372Y-12389984D01*
X11996372Y-12389984D02*
X12015420Y-12399508D01*
X12015420Y-12399508D02*
X12024944Y-12409031D01*
X12024944Y-12409031D02*
X12034468Y-12428079D01*
X12034468Y-12428079D02*
X12043991Y-12466174D01*
X12043991Y-12466174D02*
X12043991Y-12513793D01*
X12043991Y-12513793D02*
X12034468Y-12551888D01*
X12034468Y-12551888D02*
X12024944Y-12570936D01*
X12024944Y-12570936D02*
X12015420Y-12580460D01*
X12015420Y-12580460D02*
X11996372Y-12589984D01*
X11996372Y-12589984D02*
X11977325Y-12589984D01*
X11977325Y-12589984D02*
X11958277Y-12580460D01*
X11958277Y-12580460D02*
X11948753Y-12570936D01*
X11948753Y-12570936D02*
X11939229Y-12551888D01*
X11939229Y-12551888D02*
X11929706Y-12513793D01*
X11929706Y-12513793D02*
X11929706Y-12466174D01*
X11929706Y-12466174D02*
X11939229Y-12428079D01*
X11939229Y-12428079D02*
X11948753Y-12409031D01*
X11948753Y-12409031D02*
X11958277Y-12399508D01*
X11958277Y-12399508D02*
X11977325Y-12389984D01*
X12282087Y-12589984D02*
X12282087Y-12389984D01*
X12367801Y-12589984D02*
X12367801Y-12485222D01*
X12367801Y-12485222D02*
X12358277Y-12466174D01*
X12358277Y-12466174D02*
X12339230Y-12456650D01*
X12339230Y-12456650D02*
X12310658Y-12456650D01*
X12310658Y-12456650D02*
X12291610Y-12466174D01*
X12291610Y-12466174D02*
X12282087Y-12475698D01*
X12491610Y-12589984D02*
X12472563Y-12580460D01*
X12472563Y-12580460D02*
X12463039Y-12570936D01*
X12463039Y-12570936D02*
X12453515Y-12551888D01*
X12453515Y-12551888D02*
X12453515Y-12494746D01*
X12453515Y-12494746D02*
X12463039Y-12475698D01*
X12463039Y-12475698D02*
X12472563Y-12466174D01*
X12472563Y-12466174D02*
X12491610Y-12456650D01*
X12491610Y-12456650D02*
X12520182Y-12456650D01*
X12520182Y-12456650D02*
X12539230Y-12466174D01*
X12539230Y-12466174D02*
X12548753Y-12475698D01*
X12548753Y-12475698D02*
X12558277Y-12494746D01*
X12558277Y-12494746D02*
X12558277Y-12551888D01*
X12558277Y-12551888D02*
X12548753Y-12570936D01*
X12548753Y-12570936D02*
X12539230Y-12580460D01*
X12539230Y-12580460D02*
X12520182Y-12589984D01*
X12520182Y-12589984D02*
X12491610Y-12589984D01*
X12672563Y-12589984D02*
X12653515Y-12580460D01*
X12653515Y-12580460D02*
X12643991Y-12561412D01*
X12643991Y-12561412D02*
X12643991Y-12389984D01*
X12824944Y-12580460D02*
X12805896Y-12589984D01*
X12805896Y-12589984D02*
X12767801Y-12589984D01*
X12767801Y-12589984D02*
X12748753Y-12580460D01*
X12748753Y-12580460D02*
X12739230Y-12561412D01*
X12739230Y-12561412D02*
X12739230Y-12485222D01*
X12739230Y-12485222D02*
X12748753Y-12466174D01*
X12748753Y-12466174D02*
X12767801Y-12456650D01*
X12767801Y-12456650D02*
X12805896Y-12456650D01*
X12805896Y-12456650D02*
X12824944Y-12466174D01*
X12824944Y-12466174D02*
X12834468Y-12485222D01*
X12834468Y-12485222D02*
X12834468Y-12504269D01*
X12834468Y-12504269D02*
X12739230Y-12523317D01*
X12910658Y-12580460D02*
X12929706Y-12589984D01*
X12929706Y-12589984D02*
X12967801Y-12589984D01*
X12967801Y-12589984D02*
X12986849Y-12580460D01*
X12986849Y-12580460D02*
X12996372Y-12561412D01*
X12996372Y-12561412D02*
X12996372Y-12551888D01*
X12996372Y-12551888D02*
X12986849Y-12532841D01*
X12986849Y-12532841D02*
X12967801Y-12523317D01*
X12967801Y-12523317D02*
X12939230Y-12523317D01*
X12939230Y-12523317D02*
X12920182Y-12513793D01*
X12920182Y-12513793D02*
X12910658Y-12494746D01*
X12910658Y-12494746D02*
X12910658Y-12485222D01*
X12910658Y-12485222D02*
X12920182Y-12466174D01*
X12920182Y-12466174D02*
X12939230Y-12456650D01*
X12939230Y-12456650D02*
X12967801Y-12456650D01*
X12967801Y-12456650D02*
X12986849Y-12466174D01*
X13063039Y-12666174D02*
X13072563Y-12656650D01*
X13072563Y-12656650D02*
X13091611Y-12628079D01*
X13091611Y-12628079D02*
X13101134Y-12609031D01*
X13101134Y-12609031D02*
X13110658Y-12580460D01*
X13110658Y-12580460D02*
X13120182Y-12532841D01*
X13120182Y-12532841D02*
X13120182Y-12494746D01*
X13120182Y-12494746D02*
X13110658Y-12447127D01*
X13110658Y-12447127D02*
X13101134Y-12418555D01*
X13101134Y-12418555D02*
X13091611Y-12399508D01*
X13091611Y-12399508D02*
X13072563Y-12370936D01*
X13072563Y-12370936D02*
X13063039Y-12361412D01*
M02*
