M48
; DRILL file {KiCad 8.0.5} date 2025-12-10T03:24:49+0100
; FORMAT={-:-/ absolute / inch / decimal}
; #@! TF.CreationDate,2025-12-10T03:24:49+01:00
; #@! TF.GenerationSoftware,Kicad,Pcbnew,8.0.5
; #@! TF.FileFunction,Plated,1,2,PTH
FMAT,2
INCH
; #@! TA.AperFunction,Plated,PTH,ViaDrill
T1C0.0315
; #@! TA.AperFunction,Plated,PTH,ComponentDrill
T2C0.0315
; #@! TA.AperFunction,Plated,PTH,ComponentDrill
T3C0.0350
; #@! TA.AperFunction,Plated,PTH,ComponentDrill
T4C0.0374
; #@! TA.AperFunction,Plated,PTH,ComponentDrill
T5C0.0394
%
G90
G05
T1
X4.3701Y-3.4843
X4.8202Y-3.4977
X5.0394Y-3.4843
T2
X3.7598Y-3.5705
X3.7598Y-3.8705
X4.2126Y-3.5705
X4.2126Y-3.8705
X4.5571Y-3.5715
X4.5571Y-3.8715
X4.7441Y-3.5705
X4.7441Y-3.8705
T3
X3.7157Y-2.685
X3.7157Y-2.785
X3.7157Y-2.885
X3.7157Y-2.985
X3.7157Y-3.085
X3.7157Y-3.185
X3.7157Y-3.285
X4.3157Y-2.685
X4.3157Y-2.785
X4.3157Y-2.885
X4.3157Y-2.985
X4.3157Y-3.085
X4.3157Y-3.185
X4.3157Y-3.285
X4.8526Y-2.6921
X4.8526Y-2.7921
X4.8526Y-2.8921
X4.8526Y-2.9921
X4.8526Y-3.0921
X4.8526Y-3.1921
X4.8526Y-3.2921
X5.4526Y-2.6921
X5.4526Y-2.7921
X5.4526Y-2.8921
X5.4526Y-2.9921
X5.4526Y-3.0921
X5.4526Y-3.1921
X5.4526Y-3.2921
T4
X3.3835Y-2.7189
X3.3835Y-2.8173
X3.3835Y-2.9157
X3.3858Y-3.2244
X3.3858Y-3.3228
X3.3858Y-3.4213
X3.4055Y-3.7795
X3.4055Y-3.878
X3.4055Y-3.9764
X3.4055Y-4.0748
X4.625Y-2.628
X4.625Y-2.7264
X4.625Y-2.8248
X4.625Y-2.9232
X4.625Y-3.0217
X4.625Y-3.1201
X4.625Y-3.2185
X4.625Y-3.3169
X5.1575Y-4.0354
X5.2559Y-4.0354
X5.3543Y-4.0354
T5
X3.7598Y-4.0354
X3.8583Y-4.0354
X4.1043Y-4.0344
X4.2028Y-4.0344
X4.4488Y-4.0354
X4.5472Y-4.0354
X4.8031Y-4.0354
X4.9016Y-4.0354
X5.1627Y-3.6614
X5.3595Y-3.6614
M30
